<?xml version="1.0" encoding="utf-8" standalone="no"?>
<!DOCTYPE svg PUBLIC "-//W3C//DTD SVG 1.1//EN"
  "http://www.w3.org/Graphics/SVG/1.1/DTD/svg11.dtd">
<!-- Created with matplotlib (https://matplotlib.org/) -->
<svg height="414pt" version="1.1" viewBox="0 0 576 414" width="576pt" xmlns="http://www.w3.org/2000/svg" xmlns:xlink="http://www.w3.org/1999/xlink">
 <metadata>
  <rdf:RDF xmlns:cc="http://creativecommons.org/ns#" xmlns:dc="http://purl.org/dc/elements/1.1/" xmlns:rdf="http://www.w3.org/1999/02/22-rdf-syntax-ns#">
   <cc:Work>
    <dc:type rdf:resource="http://purl.org/dc/dcmitype/StillImage"/>
    <dc:date>2020-10-16T19:22:56.988672</dc:date>
    <dc:format>image/svg+xml</dc:format>
    <dc:creator>
     <cc:Agent>
      <dc:title>Matplotlib v3.3.1, https://matplotlib.org/</dc:title>
     </cc:Agent>
    </dc:creator>
   </cc:Work>
  </rdf:RDF>
 </metadata>
 <defs>
  <style type="text/css">*{stroke-linecap:butt;stroke-linejoin:round;}</style>
 </defs>
 <g id="figure_1">
  <g id="patch_1">
   <path d="M 0 414 
L 576 414 
L 576 0 
L 0 0 
z
" style="fill:#ffffff;"/>
  </g>
  <g id="axes_1">
   <g id="patch_2">
    <path d="M 86.4 256.68 
L 489.6 256.68 
L 489.6 49.68 
L 86.4 49.68 
z
" style="fill:#fafafa;"/>
   </g>
   <g id="matplotlib.axis_1">
    <g id="xtick_1">
     <g id="line2d_1">
      <path clip-path="url(#pfbf35be5c5)" d="M 114.31088 256.68 
L 114.31088 49.68 
" style="fill:none;stroke:#d0d0d0;stroke-linecap:square;stroke-width:0.8;"/>
     </g>
     <g id="line2d_2">
      <defs>
       <path d="M 0 0 
L 0 3.5 
" id="mc559679ce7" style="stroke:#101010;stroke-width:0.8;"/>
      </defs>
      <g>
       <use style="fill:#101010;stroke:#101010;stroke-width:0.8;" x="114.31088" xlink:href="#mc559679ce7" y="256.68"/>
      </g>
     </g>
    </g>
    <g id="xtick_2">
     <g id="line2d_3">
      <path clip-path="url(#pfbf35be5c5)" d="M 162.963295 256.68 
L 162.963295 49.68 
" style="fill:none;stroke:#d0d0d0;stroke-linecap:square;stroke-width:0.8;"/>
     </g>
     <g id="line2d_4">
      <g>
       <use style="fill:#101010;stroke:#101010;stroke-width:0.8;" x="162.963295" xlink:href="#mc559679ce7" y="256.68"/>
      </g>
     </g>
    </g>
    <g id="xtick_3">
     <g id="line2d_5">
      <path clip-path="url(#pfbf35be5c5)" d="M 211.615709 256.68 
L 211.615709 49.68 
" style="fill:none;stroke:#d0d0d0;stroke-linecap:square;stroke-width:0.8;"/>
     </g>
     <g id="line2d_6">
      <g>
       <use style="fill:#101010;stroke:#101010;stroke-width:0.8;" x="211.615709" xlink:href="#mc559679ce7" y="256.68"/>
      </g>
     </g>
    </g>
    <g id="xtick_4">
     <g id="line2d_7">
      <path clip-path="url(#pfbf35be5c5)" d="M 260.268124 256.68 
L 260.268124 49.68 
" style="fill:none;stroke:#d0d0d0;stroke-linecap:square;stroke-width:0.8;"/>
     </g>
     <g id="line2d_8">
      <g>
       <use style="fill:#101010;stroke:#101010;stroke-width:0.8;" x="260.268124" xlink:href="#mc559679ce7" y="256.68"/>
      </g>
     </g>
    </g>
    <g id="xtick_5">
     <g id="line2d_9">
      <path clip-path="url(#pfbf35be5c5)" d="M 308.920538 256.68 
L 308.920538 49.68 
" style="fill:none;stroke:#d0d0d0;stroke-linecap:square;stroke-width:0.8;"/>
     </g>
     <g id="line2d_10">
      <g>
       <use style="fill:#101010;stroke:#101010;stroke-width:0.8;" x="308.920538" xlink:href="#mc559679ce7" y="256.68"/>
      </g>
     </g>
    </g>
    <g id="xtick_6">
     <g id="line2d_11">
      <path clip-path="url(#pfbf35be5c5)" d="M 357.572953 256.68 
L 357.572953 49.68 
" style="fill:none;stroke:#d0d0d0;stroke-linecap:square;stroke-width:0.8;"/>
     </g>
     <g id="line2d_12">
      <g>
       <use style="fill:#101010;stroke:#101010;stroke-width:0.8;" x="357.572953" xlink:href="#mc559679ce7" y="256.68"/>
      </g>
     </g>
    </g>
    <g id="xtick_7">
     <g id="line2d_13">
      <path clip-path="url(#pfbf35be5c5)" d="M 406.225367 256.68 
L 406.225367 49.68 
" style="fill:none;stroke:#d0d0d0;stroke-linecap:square;stroke-width:0.8;"/>
     </g>
     <g id="line2d_14">
      <g>
       <use style="fill:#101010;stroke:#101010;stroke-width:0.8;" x="406.225367" xlink:href="#mc559679ce7" y="256.68"/>
      </g>
     </g>
    </g>
    <g id="xtick_8">
     <g id="line2d_15">
      <path clip-path="url(#pfbf35be5c5)" d="M 454.877782 256.68 
L 454.877782 49.68 
" style="fill:none;stroke:#d0d0d0;stroke-linecap:square;stroke-width:0.8;"/>
     </g>
     <g id="line2d_16">
      <g>
       <use style="fill:#101010;stroke:#101010;stroke-width:0.8;" x="454.877782" xlink:href="#mc559679ce7" y="256.68"/>
      </g>
     </g>
    </g>
   </g>
   <g id="matplotlib.axis_2">
    <g id="ytick_1">
     <g id="line2d_17">
      <path clip-path="url(#pfbf35be5c5)" d="M 86.4 231.951254 
L 489.6 231.951254 
" style="fill:none;stroke:#d0d0d0;stroke-linecap:square;stroke-width:0.8;"/>
     </g>
     <g id="line2d_18">
      <defs>
       <path d="M 0 0 
L 3.5 0 
" id="mb2618c7ad3" style="stroke:#101010;stroke-width:0.8;"/>
      </defs>
      <g>
       <use style="fill:#101010;stroke:#101010;stroke-width:0.8;" x="489.6" xlink:href="#mb2618c7ad3" y="231.951254"/>
      </g>
     </g>
     <g id="text_1">
      <!-- 90000 -->
      <g style="fill:#101010;" transform="translate(496.6 235.750473)scale(0.1 -0.1)">
       <defs>
        <path d="M 10.984375 1.515625 
L 10.984375 10.5 
Q 14.703125 8.734375 18.5 7.8125 
Q 22.3125 6.890625 25.984375 6.890625 
Q 35.75 6.890625 40.890625 13.453125 
Q 46.046875 20.015625 46.78125 33.40625 
Q 43.953125 29.203125 39.59375 26.953125 
Q 35.25 24.703125 29.984375 24.703125 
Q 19.046875 24.703125 12.671875 31.3125 
Q 6.296875 37.9375 6.296875 49.421875 
Q 6.296875 60.640625 12.9375 67.421875 
Q 19.578125 74.21875 30.609375 74.21875 
Q 43.265625 74.21875 49.921875 64.515625 
Q 56.59375 54.828125 56.59375 36.375 
Q 56.59375 19.140625 48.40625 8.859375 
Q 40.234375 -1.421875 26.421875 -1.421875 
Q 22.703125 -1.421875 18.890625 -0.6875 
Q 15.09375 0.046875 10.984375 1.515625 
z
M 30.609375 32.421875 
Q 37.25 32.421875 41.125 36.953125 
Q 45.015625 41.5 45.015625 49.421875 
Q 45.015625 57.28125 41.125 61.84375 
Q 37.25 66.40625 30.609375 66.40625 
Q 23.96875 66.40625 20.09375 61.84375 
Q 16.21875 57.28125 16.21875 49.421875 
Q 16.21875 41.5 20.09375 36.953125 
Q 23.96875 32.421875 30.609375 32.421875 
z
" id="DejaVuSans-57"/>
        <path d="M 31.78125 66.40625 
Q 24.171875 66.40625 20.328125 58.90625 
Q 16.5 51.421875 16.5 36.375 
Q 16.5 21.390625 20.328125 13.890625 
Q 24.171875 6.390625 31.78125 6.390625 
Q 39.453125 6.390625 43.28125 13.890625 
Q 47.125 21.390625 47.125 36.375 
Q 47.125 51.421875 43.28125 58.90625 
Q 39.453125 66.40625 31.78125 66.40625 
z
M 31.78125 74.21875 
Q 44.046875 74.21875 50.515625 64.515625 
Q 56.984375 54.828125 56.984375 36.375 
Q 56.984375 17.96875 50.515625 8.265625 
Q 44.046875 -1.421875 31.78125 -1.421875 
Q 19.53125 -1.421875 13.0625 8.265625 
Q 6.59375 17.96875 6.59375 36.375 
Q 6.59375 54.828125 13.0625 64.515625 
Q 19.53125 74.21875 31.78125 74.21875 
z
" id="DejaVuSans-48"/>
       </defs>
       <use xlink:href="#DejaVuSans-57"/>
       <use x="63.623047" xlink:href="#DejaVuSans-48"/>
       <use x="127.246094" xlink:href="#DejaVuSans-48"/>
       <use x="190.869141" xlink:href="#DejaVuSans-48"/>
       <use x="254.492188" xlink:href="#DejaVuSans-48"/>
      </g>
     </g>
    </g>
    <g id="ytick_2">
     <g id="line2d_19">
      <path clip-path="url(#pfbf35be5c5)" d="M 86.4 200.864292 
L 489.6 200.864292 
" style="fill:none;stroke:#d0d0d0;stroke-linecap:square;stroke-width:0.8;"/>
     </g>
     <g id="line2d_20">
      <g>
       <use style="fill:#101010;stroke:#101010;stroke-width:0.8;" x="489.6" xlink:href="#mb2618c7ad3" y="200.864292"/>
      </g>
     </g>
     <g id="text_2">
      <!-- 95000 -->
      <g style="fill:#101010;" transform="translate(496.6 204.66351)scale(0.1 -0.1)">
       <defs>
        <path d="M 10.796875 72.90625 
L 49.515625 72.90625 
L 49.515625 64.59375 
L 19.828125 64.59375 
L 19.828125 46.734375 
Q 21.96875 47.46875 24.109375 47.828125 
Q 26.265625 48.1875 28.421875 48.1875 
Q 40.625 48.1875 47.75 41.5 
Q 54.890625 34.8125 54.890625 23.390625 
Q 54.890625 11.625 47.5625 5.09375 
Q 40.234375 -1.421875 26.90625 -1.421875 
Q 22.3125 -1.421875 17.546875 -0.640625 
Q 12.796875 0.140625 7.71875 1.703125 
L 7.71875 11.625 
Q 12.109375 9.234375 16.796875 8.0625 
Q 21.484375 6.890625 26.703125 6.890625 
Q 35.15625 6.890625 40.078125 11.328125 
Q 45.015625 15.765625 45.015625 23.390625 
Q 45.015625 31 40.078125 35.4375 
Q 35.15625 39.890625 26.703125 39.890625 
Q 22.75 39.890625 18.8125 39.015625 
Q 14.890625 38.140625 10.796875 36.28125 
z
" id="DejaVuSans-53"/>
       </defs>
       <use xlink:href="#DejaVuSans-57"/>
       <use x="63.623047" xlink:href="#DejaVuSans-53"/>
       <use x="127.246094" xlink:href="#DejaVuSans-48"/>
       <use x="190.869141" xlink:href="#DejaVuSans-48"/>
       <use x="254.492188" xlink:href="#DejaVuSans-48"/>
      </g>
     </g>
    </g>
    <g id="ytick_3">
     <g id="line2d_21">
      <path clip-path="url(#pfbf35be5c5)" d="M 86.4 169.777329 
L 489.6 169.777329 
" style="fill:none;stroke:#d0d0d0;stroke-linecap:square;stroke-width:0.8;"/>
     </g>
     <g id="line2d_22">
      <g>
       <use style="fill:#101010;stroke:#101010;stroke-width:0.8;" x="489.6" xlink:href="#mb2618c7ad3" y="169.777329"/>
      </g>
     </g>
     <g id="text_3">
      <!-- 100000 -->
      <g style="fill:#101010;" transform="translate(496.6 173.576548)scale(0.1 -0.1)">
       <defs>
        <path d="M 12.40625 8.296875 
L 28.515625 8.296875 
L 28.515625 63.921875 
L 10.984375 60.40625 
L 10.984375 69.390625 
L 28.421875 72.90625 
L 38.28125 72.90625 
L 38.28125 8.296875 
L 54.390625 8.296875 
L 54.390625 0 
L 12.40625 0 
z
" id="DejaVuSans-49"/>
       </defs>
       <use xlink:href="#DejaVuSans-49"/>
       <use x="63.623047" xlink:href="#DejaVuSans-48"/>
       <use x="127.246094" xlink:href="#DejaVuSans-48"/>
       <use x="190.869141" xlink:href="#DejaVuSans-48"/>
       <use x="254.492188" xlink:href="#DejaVuSans-48"/>
       <use x="318.115234" xlink:href="#DejaVuSans-48"/>
      </g>
     </g>
    </g>
    <g id="ytick_4">
     <g id="line2d_23">
      <path clip-path="url(#pfbf35be5c5)" d="M 86.4 138.690367 
L 489.6 138.690367 
" style="fill:none;stroke:#d0d0d0;stroke-linecap:square;stroke-width:0.8;"/>
     </g>
     <g id="line2d_24">
      <g>
       <use style="fill:#101010;stroke:#101010;stroke-width:0.8;" x="489.6" xlink:href="#mb2618c7ad3" y="138.690367"/>
      </g>
     </g>
     <g id="text_4">
      <!-- 105000 -->
      <g style="fill:#101010;" transform="translate(496.6 142.489586)scale(0.1 -0.1)">
       <use xlink:href="#DejaVuSans-49"/>
       <use x="63.623047" xlink:href="#DejaVuSans-48"/>
       <use x="127.246094" xlink:href="#DejaVuSans-53"/>
       <use x="190.869141" xlink:href="#DejaVuSans-48"/>
       <use x="254.492188" xlink:href="#DejaVuSans-48"/>
       <use x="318.115234" xlink:href="#DejaVuSans-48"/>
      </g>
     </g>
    </g>
    <g id="ytick_5">
     <g id="line2d_25">
      <path clip-path="url(#pfbf35be5c5)" d="M 86.4 107.603404 
L 489.6 107.603404 
" style="fill:none;stroke:#d0d0d0;stroke-linecap:square;stroke-width:0.8;"/>
     </g>
     <g id="line2d_26">
      <g>
       <use style="fill:#101010;stroke:#101010;stroke-width:0.8;" x="489.6" xlink:href="#mb2618c7ad3" y="107.603404"/>
      </g>
     </g>
     <g id="text_5">
      <!-- 110000 -->
      <g style="fill:#101010;" transform="translate(496.6 111.402623)scale(0.1 -0.1)">
       <use xlink:href="#DejaVuSans-49"/>
       <use x="63.623047" xlink:href="#DejaVuSans-49"/>
       <use x="127.246094" xlink:href="#DejaVuSans-48"/>
       <use x="190.869141" xlink:href="#DejaVuSans-48"/>
       <use x="254.492188" xlink:href="#DejaVuSans-48"/>
       <use x="318.115234" xlink:href="#DejaVuSans-48"/>
      </g>
     </g>
    </g>
    <g id="ytick_6">
     <g id="line2d_27">
      <path clip-path="url(#pfbf35be5c5)" d="M 86.4 76.516442 
L 489.6 76.516442 
" style="fill:none;stroke:#d0d0d0;stroke-linecap:square;stroke-width:0.8;"/>
     </g>
     <g id="line2d_28">
      <g>
       <use style="fill:#101010;stroke:#101010;stroke-width:0.8;" x="489.6" xlink:href="#mb2618c7ad3" y="76.516442"/>
      </g>
     </g>
     <g id="text_6">
      <!-- 115000 -->
      <g style="fill:#101010;" transform="translate(496.6 80.315661)scale(0.1 -0.1)">
       <use xlink:href="#DejaVuSans-49"/>
       <use x="63.623047" xlink:href="#DejaVuSans-49"/>
       <use x="127.246094" xlink:href="#DejaVuSans-53"/>
       <use x="190.869141" xlink:href="#DejaVuSans-48"/>
       <use x="254.492188" xlink:href="#DejaVuSans-48"/>
       <use x="318.115234" xlink:href="#DejaVuSans-48"/>
      </g>
     </g>
    </g>
    <g id="text_7">
     <!-- Price -->
     <g style="fill:#101010;" transform="translate(547.893125 167.817188)rotate(-90)scale(0.12 -0.12)">
      <defs>
       <path d="M 19.671875 64.796875 
L 19.671875 37.40625 
L 32.078125 37.40625 
Q 38.96875 37.40625 42.71875 40.96875 
Q 46.484375 44.53125 46.484375 51.125 
Q 46.484375 57.671875 42.71875 61.234375 
Q 38.96875 64.796875 32.078125 64.796875 
z
M 9.8125 72.90625 
L 32.078125 72.90625 
Q 44.34375 72.90625 50.609375 67.359375 
Q 56.890625 61.8125 56.890625 51.125 
Q 56.890625 40.328125 50.609375 34.8125 
Q 44.34375 29.296875 32.078125 29.296875 
L 19.671875 29.296875 
L 19.671875 0 
L 9.8125 0 
z
" id="DejaVuSans-80"/>
       <path d="M 41.109375 46.296875 
Q 39.59375 47.171875 37.8125 47.578125 
Q 36.03125 48 33.890625 48 
Q 26.265625 48 22.1875 43.046875 
Q 18.109375 38.09375 18.109375 28.8125 
L 18.109375 0 
L 9.078125 0 
L 9.078125 54.6875 
L 18.109375 54.6875 
L 18.109375 46.1875 
Q 20.953125 51.171875 25.484375 53.578125 
Q 30.03125 56 36.53125 56 
Q 37.453125 56 38.578125 55.875 
Q 39.703125 55.765625 41.0625 55.515625 
z
" id="DejaVuSans-114"/>
       <path d="M 9.421875 54.6875 
L 18.40625 54.6875 
L 18.40625 0 
L 9.421875 0 
z
M 9.421875 75.984375 
L 18.40625 75.984375 
L 18.40625 64.59375 
L 9.421875 64.59375 
z
" id="DejaVuSans-105"/>
       <path d="M 48.78125 52.59375 
L 48.78125 44.1875 
Q 44.96875 46.296875 41.140625 47.34375 
Q 37.3125 48.390625 33.40625 48.390625 
Q 24.65625 48.390625 19.8125 42.84375 
Q 14.984375 37.3125 14.984375 27.296875 
Q 14.984375 17.28125 19.8125 11.734375 
Q 24.65625 6.203125 33.40625 6.203125 
Q 37.3125 6.203125 41.140625 7.25 
Q 44.96875 8.296875 48.78125 10.40625 
L 48.78125 2.09375 
Q 45.015625 0.34375 40.984375 -0.53125 
Q 36.96875 -1.421875 32.421875 -1.421875 
Q 20.0625 -1.421875 12.78125 6.34375 
Q 5.515625 14.109375 5.515625 27.296875 
Q 5.515625 40.671875 12.859375 48.328125 
Q 20.21875 56 33.015625 56 
Q 37.15625 56 41.109375 55.140625 
Q 45.0625 54.296875 48.78125 52.59375 
z
" id="DejaVuSans-99"/>
       <path d="M 56.203125 29.59375 
L 56.203125 25.203125 
L 14.890625 25.203125 
Q 15.484375 15.921875 20.484375 11.0625 
Q 25.484375 6.203125 34.421875 6.203125 
Q 39.59375 6.203125 44.453125 7.46875 
Q 49.3125 8.734375 54.109375 11.28125 
L 54.109375 2.78125 
Q 49.265625 0.734375 44.1875 -0.34375 
Q 39.109375 -1.421875 33.890625 -1.421875 
Q 20.796875 -1.421875 13.15625 6.1875 
Q 5.515625 13.8125 5.515625 26.8125 
Q 5.515625 40.234375 12.765625 48.109375 
Q 20.015625 56 32.328125 56 
Q 43.359375 56 49.78125 48.890625 
Q 56.203125 41.796875 56.203125 29.59375 
z
M 47.21875 32.234375 
Q 47.125 39.59375 43.09375 43.984375 
Q 39.0625 48.390625 32.421875 48.390625 
Q 24.90625 48.390625 20.390625 44.140625 
Q 15.875 39.890625 15.1875 32.171875 
z
" id="DejaVuSans-101"/>
      </defs>
      <use xlink:href="#DejaVuSans-80"/>
      <use x="58.552734" xlink:href="#DejaVuSans-114"/>
      <use x="99.666016" xlink:href="#DejaVuSans-105"/>
      <use x="127.449219" xlink:href="#DejaVuSans-99"/>
      <use x="182.429688" xlink:href="#DejaVuSans-101"/>
     </g>
    </g>
   </g>
   <g id="PolyCollection_1">
    <path clip-path="url(#pfbf35be5c5)" d="M 109.72562 245.088604 
L 109.72562 221.387904 
L 113.057851 221.387904 
L 113.057851 245.088604 
z
" style="fill:#00b060;fill-opacity:0.9;stroke:#00b060;stroke-width:0.5;"/>
    <path clip-path="url(#pfbf35be5c5)" d="M 116.536958 221.387904 
L 116.536958 204.13464 
L 119.869189 204.13464 
L 119.869189 221.387904 
z
" style="fill:#00b060;fill-opacity:0.9;stroke:#00b060;stroke-width:0.5;"/>
    <path clip-path="url(#pfbf35be5c5)" d="M 123.348296 204.13464 
L 123.348296 194.584725 
L 126.680527 194.584725 
L 126.680527 204.13464 
z
" style="fill:#00b060;fill-opacity:0.9;stroke:#00b060;stroke-width:0.5;"/>
    <path clip-path="url(#pfbf35be5c5)" d="M 130.159634 194.59716 
L 130.159634 198.103769 
L 133.491865 198.103769 
L 133.491865 194.59716 
z
" style="fill:#fe3032;fill-opacity:0.9;stroke:#fe3032;stroke-width:0.5;"/>
    <path clip-path="url(#pfbf35be5c5)" d="M 136.970972 197.705856 
L 136.970972 178.55007 
L 140.303203 178.55007 
L 140.303203 197.705856 
z
" style="fill:#00b060;fill-opacity:0.9;stroke:#00b060;stroke-width:0.5;"/>
    <path clip-path="url(#pfbf35be5c5)" d="M 143.78231 178.562505 
L 143.78231 204.513901 
L 147.114541 204.513901 
L 147.114541 178.562505 
z
" style="fill:#fe3032;fill-opacity:0.9;stroke:#fe3032;stroke-width:0.5;"/>
    <path clip-path="url(#pfbf35be5c5)" d="M 150.593648 204.470379 
L 150.593648 191.476029 
L 153.925879 191.476029 
L 153.925879 204.470379 
z
" style="fill:#00b060;fill-opacity:0.9;stroke:#00b060;stroke-width:0.5;"/>
    <path clip-path="url(#pfbf35be5c5)" d="M 157.404986 191.457377 
L 157.404986 186.937332 
L 160.737217 186.937332 
L 160.737217 191.457377 
z
" style="fill:#00b060;fill-opacity:0.9;stroke:#00b060;stroke-width:0.5;"/>
    <path clip-path="url(#pfbf35be5c5)" d="M 164.216324 186.924898 
L 164.216324 203.326379 
L 167.548555 203.326379 
L 167.548555 186.924898 
z
" style="fill:#fe3032;fill-opacity:0.9;stroke:#fe3032;stroke-width:0.5;"/>
    <path clip-path="url(#pfbf35be5c5)" d="M 171.027662 203.326379 
L 171.027662 182.044245 
L 174.359893 182.044245 
L 174.359893 203.326379 
z
" style="fill:#00b060;fill-opacity:0.9;stroke:#00b060;stroke-width:0.5;"/>
    <path clip-path="url(#pfbf35be5c5)" d="M 177.839 181.975853 
L 177.839 169.814634 
L 181.171231 169.814634 
L 181.171231 181.975853 
z
" style="fill:#00b060;fill-opacity:0.9;stroke:#00b060;stroke-width:0.5;"/>
    <path clip-path="url(#pfbf35be5c5)" d="M 184.650338 169.833286 
L 184.650338 209.183163 
L 187.982569 209.183163 
L 187.982569 169.833286 
z
" style="fill:#fe3032;fill-opacity:0.9;stroke:#fe3032;stroke-width:0.5;"/>
    <path clip-path="url(#pfbf35be5c5)" d="M 191.461676 209.145858 
L 191.461676 194.31116 
L 194.793908 194.31116 
L 194.793908 209.145858 
z
" style="fill:#00b060;fill-opacity:0.9;stroke:#00b060;stroke-width:0.5;"/>
    <path clip-path="url(#pfbf35be5c5)" d="M 198.273014 194.261421 
L 198.273014 186.135289 
L 201.605246 186.135289 
L 201.605246 194.261421 
z
" style="fill:#00b060;fill-opacity:0.9;stroke:#00b060;stroke-width:0.5;"/>
    <path clip-path="url(#pfbf35be5c5)" d="M 205.084352 186.153941 
L 205.084352 212.783033 
L 208.416584 212.783033 
L 208.416584 186.153941 
z
" style="fill:#fe3032;fill-opacity:0.9;stroke:#fe3032;stroke-width:0.5;"/>
    <path clip-path="url(#pfbf35be5c5)" d="M 211.89569 212.78925 
L 211.89569 203.425857 
L 215.227922 203.425857 
L 215.227922 212.78925 
z
" style="fill:#00b060;fill-opacity:0.9;stroke:#00b060;stroke-width:0.5;"/>
    <path clip-path="url(#pfbf35be5c5)" d="M 218.707028 203.413423 
L 218.707028 193.478029 
L 222.03926 193.478029 
L 222.03926 203.413423 
z
" style="fill:#00b060;fill-opacity:0.9;stroke:#00b060;stroke-width:0.5;"/>
    <path clip-path="url(#pfbf35be5c5)" d="M 225.518366 193.459377 
L 225.518366 200.808335 
L 228.850598 200.808335 
L 228.850598 193.459377 
z
" style="fill:#fe3032;fill-opacity:0.9;stroke:#fe3032;stroke-width:0.5;"/>
    <path clip-path="url(#pfbf35be5c5)" d="M 232.329704 200.808335 
L 232.329704 221.213817 
L 235.661936 221.213817 
L 235.661936 200.808335 
z
" style="fill:#fe3032;fill-opacity:0.9;stroke:#fe3032;stroke-width:0.5;"/>
    <path clip-path="url(#pfbf35be5c5)" d="M 239.141042 221.157861 
L 239.141042 219.852208 
L 242.473274 219.852208 
L 242.473274 221.157861 
z
" style="fill:#00b060;fill-opacity:0.9;stroke:#00b060;stroke-width:0.5;"/>
    <path clip-path="url(#pfbf35be5c5)" d="M 245.95238 219.852208 
L 245.95238 201.709857 
L 249.284612 201.709857 
L 249.284612 219.852208 
z
" style="fill:#00b060;fill-opacity:0.9;stroke:#00b060;stroke-width:0.5;"/>
    <path clip-path="url(#pfbf35be5c5)" d="M 252.763718 201.716074 
L 252.763718 188.305159 
L 256.09595 188.305159 
L 256.09595 201.716074 
z
" style="fill:#00b060;fill-opacity:0.9;stroke:#00b060;stroke-width:0.5;"/>
    <path clip-path="url(#pfbf35be5c5)" d="M 259.575056 188.305159 
L 259.575056 185.525984 
L 262.907288 185.525984 
L 262.907288 188.305159 
z
" style="fill:#00b060;fill-opacity:0.9;stroke:#00b060;stroke-width:0.5;"/>
    <path clip-path="url(#pfbf35be5c5)" d="M 266.386394 185.525984 
L 266.386394 184.556071 
L 269.718626 184.556071 
L 269.718626 185.525984 
z
" style="fill:#00b060;fill-opacity:0.9;stroke:#00b060;stroke-width:0.5;"/>
    <path clip-path="url(#pfbf35be5c5)" d="M 273.197732 184.493897 
L 273.197732 156.957066 
L 276.529964 156.957066 
L 276.529964 184.493897 
z
" style="fill:#00b060;fill-opacity:0.9;stroke:#00b060;stroke-width:0.5;"/>
    <path clip-path="url(#pfbf35be5c5)" d="M 280.00907 156.963283 
L 280.00907 161.446023 
L 283.341302 161.446023 
L 283.341302 156.963283 
z
" style="fill:#fe3032;fill-opacity:0.9;stroke:#fe3032;stroke-width:0.5;"/>
    <path clip-path="url(#pfbf35be5c5)" d="M 286.820408 161.433589 
L 286.820408 141.612541 
L 290.15264 141.612541 
L 290.15264 161.433589 
z
" style="fill:#00b060;fill-opacity:0.9;stroke:#00b060;stroke-width:0.5;"/>
    <path clip-path="url(#pfbf35be5c5)" d="M 293.631746 144.348194 
L 293.631746 146.132586 
L 296.963978 146.132586 
L 296.963978 144.348194 
z
" style="fill:#fe3032;fill-opacity:0.9;stroke:#fe3032;stroke-width:0.5;"/>
    <path clip-path="url(#pfbf35be5c5)" d="M 300.443084 146.120151 
L 300.443084 145.224846 
L 303.775316 145.224846 
L 303.775316 146.120151 
z
" style="fill:#00b060;fill-opacity:0.9;stroke:#00b060;stroke-width:0.5;"/>
    <path clip-path="url(#pfbf35be5c5)" d="M 307.254423 145.224846 
L 307.254423 148.122151 
L 310.586654 148.122151 
L 310.586654 145.224846 
z
" style="fill:#fe3032;fill-opacity:0.9;stroke:#fe3032;stroke-width:0.5;"/>
    <path clip-path="url(#pfbf35be5c5)" d="M 314.065761 148.122151 
L 314.065761 169.168025 
L 317.397992 169.168025 
L 317.397992 148.122151 
z
" style="fill:#fe3032;fill-opacity:0.9;stroke:#fe3032;stroke-width:0.5;"/>
    <path clip-path="url(#pfbf35be5c5)" d="M 320.877099 169.168025 
L 320.877099 157.871023 
L 324.20933 157.871023 
L 324.20933 169.168025 
z
" style="fill:#00b060;fill-opacity:0.9;stroke:#00b060;stroke-width:0.5;"/>
    <path clip-path="url(#pfbf35be5c5)" d="M 327.688437 157.889675 
L 327.688437 173.078765 
L 331.020668 173.078765 
L 331.020668 157.889675 
z
" style="fill:#fe3032;fill-opacity:0.9;stroke:#fe3032;stroke-width:0.5;"/>
    <path clip-path="url(#pfbf35be5c5)" d="M 334.499775 173.060112 
L 334.499775 191.97342 
L 337.832006 191.97342 
L 337.832006 173.060112 
z
" style="fill:#fe3032;fill-opacity:0.9;stroke:#fe3032;stroke-width:0.5;"/>
    <path clip-path="url(#pfbf35be5c5)" d="M 341.311113 191.948551 
L 341.311113 165.885242 
L 344.643344 165.885242 
L 344.643344 191.948551 
z
" style="fill:#00b060;fill-opacity:0.9;stroke:#00b060;stroke-width:0.5;"/>
    <path clip-path="url(#pfbf35be5c5)" d="M 348.122451 165.885242 
L 348.122451 149.999804 
L 351.454682 149.999804 
L 351.454682 165.885242 
z
" style="fill:#00b060;fill-opacity:0.9;stroke:#00b060;stroke-width:0.5;"/>
    <path clip-path="url(#pfbf35be5c5)" d="M 354.933789 150.006021 
L 354.933789 146.897325 
L 358.26602 146.897325 
L 358.26602 150.006021 
z
" style="fill:#00b060;fill-opacity:0.9;stroke:#00b060;stroke-width:0.5;"/>
    <path clip-path="url(#pfbf35be5c5)" d="M 361.745127 146.897325 
L 361.745127 140.941063 
L 365.077358 140.941063 
L 365.077358 146.897325 
z
" style="fill:#00b060;fill-opacity:0.9;stroke:#00b060;stroke-width:0.5;"/>
    <path clip-path="url(#pfbf35be5c5)" d="M 368.556465 140.941063 
L 368.556465 140.275802 
L 371.888696 140.275802 
L 371.888696 140.941063 
z
" style="fill:#00b060;fill-opacity:0.9;stroke:#00b060;stroke-width:0.5;"/>
    <path clip-path="url(#pfbf35be5c5)" d="M 375.367803 140.275802 
L 375.367803 166.214763 
L 378.700034 166.214763 
L 378.700034 140.275802 
z
" style="fill:#fe3032;fill-opacity:0.9;stroke:#fe3032;stroke-width:0.5;"/>
    <path clip-path="url(#pfbf35be5c5)" d="M 382.179141 166.264502 
L 382.179141 143.030107 
L 385.511372 143.030107 
L 385.511372 166.264502 
z
" style="fill:#00b060;fill-opacity:0.9;stroke:#00b060;stroke-width:0.5;"/>
    <path clip-path="url(#pfbf35be5c5)" d="M 388.990479 143.048759 
L 388.990479 132.336192 
L 392.32271 132.336192 
L 392.32271 143.048759 
z
" style="fill:#00b060;fill-opacity:0.9;stroke:#00b060;stroke-width:0.5;"/>
    <path clip-path="url(#pfbf35be5c5)" d="M 394.828769 125.627625 
L 394.828769 118.875537 
L 398.161 118.875537 
L 398.161 125.627625 
z
" style="fill:#00b060;fill-opacity:0.9;stroke:#00b060;stroke-width:0.5;"/>
    <path clip-path="url(#pfbf35be5c5)" d="M 401.640107 118.863102 
L 401.640107 116.301537 
L 404.972338 116.301537 
L 404.972338 118.863102 
z
" style="fill:#00b060;fill-opacity:0.9;stroke:#00b060;stroke-width:0.5;"/>
    <path clip-path="url(#pfbf35be5c5)" d="M 408.451445 115.194841 
L 408.451445 118.70145 
L 411.783676 118.70145 
L 411.783676 115.194841 
z
" style="fill:#fe3032;fill-opacity:0.9;stroke:#fe3032;stroke-width:0.5;"/>
    <path clip-path="url(#pfbf35be5c5)" d="M 415.262783 117.750189 
L 415.262783 130.315539 
L 418.595014 130.315539 
L 418.595014 117.750189 
z
" style="fill:#fe3032;fill-opacity:0.9;stroke:#fe3032;stroke-width:0.5;"/>
    <path clip-path="url(#pfbf35be5c5)" d="M 422.074121 130.800496 
L 422.074121 117.402015 
L 425.406352 117.402015 
L 425.406352 130.800496 
z
" style="fill:#00b060;fill-opacity:0.9;stroke:#00b060;stroke-width:0.5;"/>
    <path clip-path="url(#pfbf35be5c5)" d="M 428.885459 117.402015 
L 428.885459 113.441536 
L 432.21769 113.441536 
L 432.21769 117.402015 
z
" style="fill:#00b060;fill-opacity:0.9;stroke:#00b060;stroke-width:0.5;"/>
    <path clip-path="url(#pfbf35be5c5)" d="M 435.696797 114.249797 
L 435.696797 101.529012 
L 439.029028 101.529012 
L 439.029028 114.249797 
z
" style="fill:#00b060;fill-opacity:0.9;stroke:#00b060;stroke-width:0.5;"/>
    <path clip-path="url(#pfbf35be5c5)" d="M 442.508135 101.553882 
L 442.508135 95.815228 
L 445.840366 95.815228 
L 445.840366 101.553882 
z
" style="fill:#00b060;fill-opacity:0.9;stroke:#00b060;stroke-width:0.5;"/>
    <path clip-path="url(#pfbf35be5c5)" d="M 449.319473 95.809011 
L 449.319473 71.150832 
L 452.651704 71.150832 
L 452.651704 95.809011 
z
" style="fill:#00b060;fill-opacity:0.9;stroke:#00b060;stroke-width:0.5;"/>
    <path clip-path="url(#pfbf35be5c5)" d="M 456.130811 71.150832 
L 456.130811 70.522876 
L 459.463042 70.522876 
L 459.463042 71.150832 
z
" style="fill:#00b060;fill-opacity:0.9;stroke:#00b060;stroke-width:0.5;"/>
    <path clip-path="url(#pfbf35be5c5)" d="M 462.942149 72.506224 
L 462.942149 72.506224 
L 466.27438 72.506224 
L 466.27438 72.506224 
z
" style="fill:#fe3032;fill-opacity:0.9;stroke:#fe3032;stroke-width:0.5;"/>
   </g>
   <g id="LineCollection_1">
    <path clip-path="url(#pfbf35be5c5)" d="M 111.391736 247.270909 
L 111.391736 245.088604 
" style="fill:none;stroke:#606060;stroke-width:1.5;"/>
    <path clip-path="url(#pfbf35be5c5)" d="M 118.203074 225.335948 
L 118.203074 221.387904 
" style="fill:none;stroke:#606060;stroke-width:1.5;"/>
    <path clip-path="url(#pfbf35be5c5)" d="M 125.014412 210.799685 
L 125.014412 204.13464 
" style="fill:none;stroke:#606060;stroke-width:1.5;"/>
    <path clip-path="url(#pfbf35be5c5)" d="M 131.82575 202.96577 
L 131.82575 198.103769 
" style="fill:none;stroke:#606060;stroke-width:1.5;"/>
    <path clip-path="url(#pfbf35be5c5)" d="M 138.637088 197.705856 
L 138.637088 197.705856 
" style="fill:none;stroke:#606060;stroke-width:1.5;"/>
    <path clip-path="url(#pfbf35be5c5)" d="M 145.448426 210.662902 
L 145.448426 204.513901 
" style="fill:none;stroke:#606060;stroke-width:1.5;"/>
    <path clip-path="url(#pfbf35be5c5)" d="M 152.259764 204.470379 
L 152.259764 204.470379 
" style="fill:none;stroke:#606060;stroke-width:1.5;"/>
    <path clip-path="url(#pfbf35be5c5)" d="M 159.071102 195.933899 
L 159.071102 191.457377 
" style="fill:none;stroke:#606060;stroke-width:1.5;"/>
    <path clip-path="url(#pfbf35be5c5)" d="M 165.88244 204.632031 
L 165.88244 203.326379 
" style="fill:none;stroke:#606060;stroke-width:1.5;"/>
    <path clip-path="url(#pfbf35be5c5)" d="M 172.693778 211.402772 
L 172.693778 203.326379 
" style="fill:none;stroke:#606060;stroke-width:1.5;"/>
    <path clip-path="url(#pfbf35be5c5)" d="M 179.505116 186.769463 
L 179.505116 181.975853 
" style="fill:none;stroke:#606060;stroke-width:1.5;"/>
    <path clip-path="url(#pfbf35be5c5)" d="M 186.316454 212.658685 
L 186.316454 209.183163 
" style="fill:none;stroke:#606060;stroke-width:1.5;"/>
    <path clip-path="url(#pfbf35be5c5)" d="M 193.127792 222.102904 
L 193.127792 209.145858 
" style="fill:none;stroke:#606060;stroke-width:1.5;"/>
    <path clip-path="url(#pfbf35be5c5)" d="M 199.93913 206.310727 
L 199.93913 194.261421 
" style="fill:none;stroke:#606060;stroke-width:1.5;"/>
    <path clip-path="url(#pfbf35be5c5)" d="M 206.750468 216.308295 
L 206.750468 212.783033 
" style="fill:none;stroke:#606060;stroke-width:1.5;"/>
    <path clip-path="url(#pfbf35be5c5)" d="M 213.561806 217.41499 
L 213.561806 212.78925 
" style="fill:none;stroke:#606060;stroke-width:1.5;"/>
    <path clip-path="url(#pfbf35be5c5)" d="M 220.373144 206.068249 
L 220.373144 203.413423 
" style="fill:none;stroke:#606060;stroke-width:1.5;"/>
    <path clip-path="url(#pfbf35be5c5)" d="M 227.184482 203.724292 
L 227.184482 200.808335 
" style="fill:none;stroke:#606060;stroke-width:1.5;"/>
    <path clip-path="url(#pfbf35be5c5)" d="M 233.99582 222.003426 
L 233.99582 221.213817 
" style="fill:none;stroke:#606060;stroke-width:1.5;"/>
    <path clip-path="url(#pfbf35be5c5)" d="M 240.807158 235.625733 
L 240.807158 221.157861 
" style="fill:none;stroke:#606060;stroke-width:1.5;"/>
    <path clip-path="url(#pfbf35be5c5)" d="M 247.618496 219.852208 
L 247.618496 219.852208 
" style="fill:none;stroke:#606060;stroke-width:1.5;"/>
    <path clip-path="url(#pfbf35be5c5)" d="M 254.429834 202.685988 
L 254.429834 201.716074 
" style="fill:none;stroke:#606060;stroke-width:1.5;"/>
    <path clip-path="url(#pfbf35be5c5)" d="M 261.241172 196.59916 
L 261.241172 188.305159 
" style="fill:none;stroke:#606060;stroke-width:1.5;"/>
    <path clip-path="url(#pfbf35be5c5)" d="M 268.05251 185.525984 
L 268.05251 185.525984 
" style="fill:none;stroke:#606060;stroke-width:1.5;"/>
    <path clip-path="url(#pfbf35be5c5)" d="M 274.863848 184.493897 
L 274.863848 184.493897 
" style="fill:none;stroke:#606060;stroke-width:1.5;"/>
    <path clip-path="url(#pfbf35be5c5)" d="M 281.675186 173.377199 
L 281.675186 161.446023 
" style="fill:none;stroke:#606060;stroke-width:1.5;"/>
    <path clip-path="url(#pfbf35be5c5)" d="M 288.486524 169.32346 
L 288.486524 161.433589 
" style="fill:none;stroke:#606060;stroke-width:1.5;"/>
    <path clip-path="url(#pfbf35be5c5)" d="M 295.297862 148.047543 
L 295.297862 146.132586 
" style="fill:none;stroke:#606060;stroke-width:1.5;"/>
    <path clip-path="url(#pfbf35be5c5)" d="M 302.1092 148.880673 
L 302.1092 146.120151 
" style="fill:none;stroke:#606060;stroke-width:1.5;"/>
    <path clip-path="url(#pfbf35be5c5)" d="M 308.920538 156.123935 
L 308.920538 148.122151 
" style="fill:none;stroke:#606060;stroke-width:1.5;"/>
    <path clip-path="url(#pfbf35be5c5)" d="M 315.731876 172.077764 
L 315.731876 169.168025 
" style="fill:none;stroke:#606060;stroke-width:1.5;"/>
    <path clip-path="url(#pfbf35be5c5)" d="M 322.543214 169.168025 
L 322.543214 169.168025 
" style="fill:none;stroke:#606060;stroke-width:1.5;"/>
    <path clip-path="url(#pfbf35be5c5)" d="M 329.354552 180.968636 
L 329.354552 173.078765 
" style="fill:none;stroke:#606060;stroke-width:1.5;"/>
    <path clip-path="url(#pfbf35be5c5)" d="M 336.16589 194.889377 
L 336.16589 191.97342 
" style="fill:none;stroke:#606060;stroke-width:1.5;"/>
    <path clip-path="url(#pfbf35be5c5)" d="M 342.977228 195.548421 
L 342.977228 191.948551 
" style="fill:none;stroke:#606060;stroke-width:1.5;"/>
    <path clip-path="url(#pfbf35be5c5)" d="M 349.788566 173.47046 
L 349.788566 165.885242 
" style="fill:none;stroke:#606060;stroke-width:1.5;"/>
    <path clip-path="url(#pfbf35be5c5)" d="M 356.599904 155.906327 
L 356.599904 150.006021 
" style="fill:none;stroke:#606060;stroke-width:1.5;"/>
    <path clip-path="url(#pfbf35be5c5)" d="M 363.411242 150.633978 
L 363.411242 146.897325 
" style="fill:none;stroke:#606060;stroke-width:1.5;"/>
    <path clip-path="url(#pfbf35be5c5)" d="M 370.22258 150.91376 
L 370.22258 140.941063 
" style="fill:none;stroke:#606060;stroke-width:1.5;"/>
    <path clip-path="url(#pfbf35be5c5)" d="M 377.033918 170.859156 
L 377.033918 166.214763 
" style="fill:none;stroke:#606060;stroke-width:1.5;"/>
    <path clip-path="url(#pfbf35be5c5)" d="M 383.845256 170.598025 
L 383.845256 166.264502 
" style="fill:none;stroke:#606060;stroke-width:1.5;"/>
    <path clip-path="url(#pfbf35be5c5)" d="M 390.656594 147.88589 
L 390.656594 143.048759 
" style="fill:none;stroke:#606060;stroke-width:1.5;"/>
    <path clip-path="url(#pfbf35be5c5)" d="M 396.494884 128.786061 
L 396.494884 125.627625 
" style="fill:none;stroke:#606060;stroke-width:1.5;"/>
    <path clip-path="url(#pfbf35be5c5)" d="M 403.306222 130.259583 
L 403.306222 118.863102 
" style="fill:none;stroke:#606060;stroke-width:1.5;"/>
    <path clip-path="url(#pfbf35be5c5)" d="M 410.11756 127.412017 
L 410.11756 118.70145 
" style="fill:none;stroke:#606060;stroke-width:1.5;"/>
    <path clip-path="url(#pfbf35be5c5)" d="M 416.928898 137.067627 
L 416.928898 130.315539 
" style="fill:none;stroke:#606060;stroke-width:1.5;"/>
    <path clip-path="url(#pfbf35be5c5)" d="M 423.740236 136.408584 
L 423.740236 130.800496 
" style="fill:none;stroke:#606060;stroke-width:1.5;"/>
    <path clip-path="url(#pfbf35be5c5)" d="M 430.551574 130.533148 
L 430.551574 117.402015 
" style="fill:none;stroke:#606060;stroke-width:1.5;"/>
    <path clip-path="url(#pfbf35be5c5)" d="M 437.362912 118.856885 
L 437.362912 114.249797 
" style="fill:none;stroke:#606060;stroke-width:1.5;"/>
    <path clip-path="url(#pfbf35be5c5)" d="M 444.17425 106.776491 
L 444.17425 101.553882 
" style="fill:none;stroke:#606060;stroke-width:1.5;"/>
    <path clip-path="url(#pfbf35be5c5)" d="M 450.985588 95.809011 
L 450.985588 95.809011 
" style="fill:none;stroke:#606060;stroke-width:1.5;"/>
    <path clip-path="url(#pfbf35be5c5)" d="M 457.796926 72.332137 
L 457.796926 71.150832 
" style="fill:none;stroke:#606060;stroke-width:1.5;"/>
    <path clip-path="url(#pfbf35be5c5)" d="M 464.608264 72.506224 
L 464.608264 72.506224 
" style="fill:none;stroke:#606060;stroke-width:1.5;"/>
    <path clip-path="url(#pfbf35be5c5)" d="M 111.391736 215.158077 
L 111.391736 221.387904 
" style="fill:none;stroke:#606060;stroke-width:1.5;"/>
    <path clip-path="url(#pfbf35be5c5)" d="M 118.203074 204.13464 
L 118.203074 204.13464 
" style="fill:none;stroke:#606060;stroke-width:1.5;"/>
    <path clip-path="url(#pfbf35be5c5)" d="M 125.014412 192.184812 
L 125.014412 194.584725 
" style="fill:none;stroke:#606060;stroke-width:1.5;"/>
    <path clip-path="url(#pfbf35be5c5)" d="M 131.82575 182.60381 
L 131.82575 194.59716 
" style="fill:none;stroke:#606060;stroke-width:1.5;"/>
    <path clip-path="url(#pfbf35be5c5)" d="M 138.637088 178.55007 
L 138.637088 178.55007 
" style="fill:none;stroke:#606060;stroke-width:1.5;"/>
    <path clip-path="url(#pfbf35be5c5)" d="M 145.448426 178.562505 
L 145.448426 178.562505 
" style="fill:none;stroke:#606060;stroke-width:1.5;"/>
    <path clip-path="url(#pfbf35be5c5)" d="M 152.259764 180.732375 
L 152.259764 191.476029 
" style="fill:none;stroke:#606060;stroke-width:1.5;"/>
    <path clip-path="url(#pfbf35be5c5)" d="M 159.071102 178.829853 
L 159.071102 186.937332 
" style="fill:none;stroke:#606060;stroke-width:1.5;"/>
    <path clip-path="url(#pfbf35be5c5)" d="M 165.88244 182.808984 
L 165.88244 186.924898 
" style="fill:none;stroke:#606060;stroke-width:1.5;"/>
    <path clip-path="url(#pfbf35be5c5)" d="M 172.693778 182.044245 
L 172.693778 182.044245 
" style="fill:none;stroke:#606060;stroke-width:1.5;"/>
    <path clip-path="url(#pfbf35be5c5)" d="M 179.505116 169.541068 
L 179.505116 169.814634 
" style="fill:none;stroke:#606060;stroke-width:1.5;"/>
    <path clip-path="url(#pfbf35be5c5)" d="M 186.316454 167.047894 
L 186.316454 169.833286 
" style="fill:none;stroke:#606060;stroke-width:1.5;"/>
    <path clip-path="url(#pfbf35be5c5)" d="M 193.127792 189.97142 
L 193.127792 194.31116 
" style="fill:none;stroke:#606060;stroke-width:1.5;"/>
    <path clip-path="url(#pfbf35be5c5)" d="M 199.93913 184.636897 
L 199.93913 186.135289 
" style="fill:none;stroke:#606060;stroke-width:1.5;"/>
    <path clip-path="url(#pfbf35be5c5)" d="M 206.750468 186.153941 
L 206.750468 186.153941 
" style="fill:none;stroke:#606060;stroke-width:1.5;"/>
    <path clip-path="url(#pfbf35be5c5)" d="M 213.561806 199.993857 
L 213.561806 203.425857 
" style="fill:none;stroke:#606060;stroke-width:1.5;"/>
    <path clip-path="url(#pfbf35be5c5)" d="M 220.373144 187.664767 
L 220.373144 193.478029 
" style="fill:none;stroke:#606060;stroke-width:1.5;"/>
    <path clip-path="url(#pfbf35be5c5)" d="M 227.184482 190.251203 
L 227.184482 193.459377 
" style="fill:none;stroke:#606060;stroke-width:1.5;"/>
    <path clip-path="url(#pfbf35be5c5)" d="M 233.99582 192.707073 
L 233.99582 200.808335 
" style="fill:none;stroke:#606060;stroke-width:1.5;"/>
    <path clip-path="url(#pfbf35be5c5)" d="M 240.807158 216.227468 
L 240.807158 219.852208 
" style="fill:none;stroke:#606060;stroke-width:1.5;"/>
    <path clip-path="url(#pfbf35be5c5)" d="M 247.618496 198.103769 
L 247.618496 201.709857 
" style="fill:none;stroke:#606060;stroke-width:1.5;"/>
    <path clip-path="url(#pfbf35be5c5)" d="M 254.429834 182.261853 
L 254.429834 188.305159 
" style="fill:none;stroke:#606060;stroke-width:1.5;"/>
    <path clip-path="url(#pfbf35be5c5)" d="M 261.241172 180.185244 
L 261.241172 185.525984 
" style="fill:none;stroke:#606060;stroke-width:1.5;"/>
    <path clip-path="url(#pfbf35be5c5)" d="M 268.05251 173.731591 
L 268.05251 184.556071 
" style="fill:none;stroke:#606060;stroke-width:1.5;"/>
    <path clip-path="url(#pfbf35be5c5)" d="M 274.863848 153.506413 
L 274.863848 156.957066 
" style="fill:none;stroke:#606060;stroke-width:1.5;"/>
    <path clip-path="url(#pfbf35be5c5)" d="M 281.675186 154.656631 
L 281.675186 156.963283 
" style="fill:none;stroke:#606060;stroke-width:1.5;"/>
    <path clip-path="url(#pfbf35be5c5)" d="M 288.486524 140.68615 
L 288.486524 141.612541 
" style="fill:none;stroke:#606060;stroke-width:1.5;"/>
    <path clip-path="url(#pfbf35be5c5)" d="M 295.297862 128.431669 
L 295.297862 144.348194 
" style="fill:none;stroke:#606060;stroke-width:1.5;"/>
    <path clip-path="url(#pfbf35be5c5)" d="M 302.1092 140.101715 
L 302.1092 145.224846 
" style="fill:none;stroke:#606060;stroke-width:1.5;"/>
    <path clip-path="url(#pfbf35be5c5)" d="M 308.920538 141.363846 
L 308.920538 145.224846 
" style="fill:none;stroke:#606060;stroke-width:1.5;"/>
    <path clip-path="url(#pfbf35be5c5)" d="M 315.731876 144.559585 
L 315.731876 148.122151 
" style="fill:none;stroke:#606060;stroke-width:1.5;"/>
    <path clip-path="url(#pfbf35be5c5)" d="M 322.543214 139.63541 
L 322.543214 157.871023 
" style="fill:none;stroke:#606060;stroke-width:1.5;"/>
    <path clip-path="url(#pfbf35be5c5)" d="M 329.354552 146.28802 
L 329.354552 157.889675 
" style="fill:none;stroke:#606060;stroke-width:1.5;"/>
    <path clip-path="url(#pfbf35be5c5)" d="M 336.16589 160.64398 
L 336.16589 173.060112 
" style="fill:none;stroke:#606060;stroke-width:1.5;"/>
    <path clip-path="url(#pfbf35be5c5)" d="M 342.977228 159.76111 
L 342.977228 165.885242 
" style="fill:none;stroke:#606060;stroke-width:1.5;"/>
    <path clip-path="url(#pfbf35be5c5)" d="M 349.788566 143.291237 
L 349.788566 149.999804 
" style="fill:none;stroke:#606060;stroke-width:1.5;"/>
    <path clip-path="url(#pfbf35be5c5)" d="M 356.599904 140.561802 
L 356.599904 146.897325 
" style="fill:none;stroke:#606060;stroke-width:1.5;"/>
    <path clip-path="url(#pfbf35be5c5)" d="M 363.411242 132.466757 
L 363.411242 140.941063 
" style="fill:none;stroke:#606060;stroke-width:1.5;"/>
    <path clip-path="url(#pfbf35be5c5)" d="M 370.22258 134.754757 
L 370.22258 140.275802 
" style="fill:none;stroke:#606060;stroke-width:1.5;"/>
    <path clip-path="url(#pfbf35be5c5)" d="M 377.033918 137.938062 
L 377.033918 140.275802 
" style="fill:none;stroke:#606060;stroke-width:1.5;"/>
    <path clip-path="url(#pfbf35be5c5)" d="M 383.845256 142.538933 
L 383.845256 143.030107 
" style="fill:none;stroke:#606060;stroke-width:1.5;"/>
    <path clip-path="url(#pfbf35be5c5)" d="M 390.656594 132.305105 
L 390.656594 132.336192 
" style="fill:none;stroke:#606060;stroke-width:1.5;"/>
    <path clip-path="url(#pfbf35be5c5)" d="M 396.494884 117.594754 
L 396.494884 118.875537 
" style="fill:none;stroke:#606060;stroke-width:1.5;"/>
    <path clip-path="url(#pfbf35be5c5)" d="M 403.306222 111.632275 
L 403.306222 116.301537 
" style="fill:none;stroke:#606060;stroke-width:1.5;"/>
    <path clip-path="url(#pfbf35be5c5)" d="M 410.11756 109.642709 
L 410.11756 115.194841 
" style="fill:none;stroke:#606060;stroke-width:1.5;"/>
    <path clip-path="url(#pfbf35be5c5)" d="M 416.928898 117.750189 
L 416.928898 117.750189 
" style="fill:none;stroke:#606060;stroke-width:1.5;"/>
    <path clip-path="url(#pfbf35be5c5)" d="M 423.740236 114.349275 
L 423.740236 117.402015 
" style="fill:none;stroke:#606060;stroke-width:1.5;"/>
    <path clip-path="url(#pfbf35be5c5)" d="M 430.551574 112.086144 
L 430.551574 113.441536 
" style="fill:none;stroke:#606060;stroke-width:1.5;"/>
    <path clip-path="url(#pfbf35be5c5)" d="M 437.362912 98.569533 
L 437.362912 101.529012 
" style="fill:none;stroke:#606060;stroke-width:1.5;"/>
    <path clip-path="url(#pfbf35be5c5)" d="M 444.17425 87.726401 
L 444.17425 95.815228 
" style="fill:none;stroke:#606060;stroke-width:1.5;"/>
    <path clip-path="url(#pfbf35be5c5)" d="M 450.985588 71.150832 
L 450.985588 71.150832 
" style="fill:none;stroke:#606060;stroke-width:1.5;"/>
    <path clip-path="url(#pfbf35be5c5)" d="M 457.796926 59.089091 
L 457.796926 70.522876 
" style="fill:none;stroke:#606060;stroke-width:1.5;"/>
    <path clip-path="url(#pfbf35be5c5)" d="M 464.608264 72.506224 
L 464.608264 72.506224 
" style="fill:none;stroke:#606060;stroke-width:1.5;"/>
   </g>
   <g id="line2d_29">
    <path clip-path="url(#pfbf35be5c5)" d="M 138.637088 199.352222 
L 145.448426 195.977421 
L 152.259764 193.445699 
L 159.071102 191.91622 
L 165.88244 192.960742 
L 172.693778 193.659577 
L 179.505116 186.719724 
L 186.316454 190.26115 
L 193.127792 191.735916 
L 199.93913 188.297698 
L 206.750468 194.445456 
L 213.561806 201.1677 
L 220.373144 198.026674 
L 227.184482 199.326109 
L 233.99582 206.341814 
L 240.807158 207.755649 
L 247.618496 207.412449 
L 254.429834 206.377875 
L 261.241172 203.321405 
L 268.05251 195.989856 
L 274.863848 183.410827 
L 281.675186 175.358061 
L 288.486524 166.019537 
L 295.297862 158.140857 
L 302.1092 150.274612 
L 308.920538 148.50763 
L 315.731876 150.05203 
L 322.543214 153.303726 
L 329.354552 158.692962 
L 336.16589 168.042677 
L 342.977228 171.595295 
L 349.788566 167.761651 
L 356.599904 165.566911 
L 363.411242 159.139371 
L 370.22258 148.799847 
L 377.033918 148.865751 
L 383.845256 147.471812 
L 390.656594 144.559585 
L 396.494884 140.14648 
L 403.306222 135.351627 
L 410.11756 125.848964 
L 416.928898 123.306051 
L 423.740236 120.319216 
L 430.551574 119.232415 
L 437.362912 116.27791 
L 444.17425 111.700666 
L 450.985588 99.867725 
L 457.796926 90.491897 
L 464.608264 82.304834 
" style="fill:none;stroke:#e24a33;stroke-linecap:square;stroke-width:1.5;"/>
   </g>
   <g id="line2d_30">
    <path clip-path="url(#pfbf35be5c5)" d="M 172.693778 196.505899 
L 179.505116 191.348572 
L 186.316454 191.853425 
L 193.127792 191.826068 
L 199.93913 190.62922 
L 206.750468 194.052516 
L 213.561806 193.943712 
L 220.373144 194.143912 
L 227.184482 195.531012 
L 233.99582 197.319756 
L 240.807158 201.100553 
L 247.618496 204.290075 
L 254.429834 202.202274 
L 261.241172 201.323757 
L 268.05251 201.165835 
L 274.863848 195.583238 
L 281.675186 191.385255 
L 288.486524 186.198706 
L 295.297862 180.731131 
L 302.1092 173.132234 
L 308.920538 165.959229 
L 315.731876 162.705045 
L 322.543214 159.661632 
L 329.354552 158.41691 
L 336.16589 159.158645 
L 342.977228 160.051462 
L 349.788566 158.90684 
L 356.599904 159.435319 
L 363.411242 158.916166 
L 370.22258 158.421262 
L 377.033918 160.230523 
L 383.845256 157.616731 
L 390.656594 155.063248 
L 396.494884 149.642925 
L 403.306222 142.075737 
L 410.11756 137.357358 
L 416.928898 135.388931 
L 423.740236 132.4394 
L 430.551574 129.689448 
L 437.362912 125.814769 
L 444.17425 118.774815 
L 450.985588 111.586888 
L 457.796926 105.405556 
L 464.608264 100.768625 
" style="fill:none;stroke:#348abd;stroke-linecap:square;stroke-width:1.5;"/>
   </g>
   <g id="patch_3">
    <path d="M 86.4 256.68 
L 86.4 49.68 
" style="fill:none;stroke:#f0f0f0;stroke-linecap:square;stroke-linejoin:miter;"/>
   </g>
   <g id="patch_4">
    <path d="M 489.6 256.68 
L 489.6 49.68 
" style="fill:none;stroke:#f0f0f0;stroke-linecap:square;stroke-linejoin:miter;"/>
   </g>
   <g id="patch_5">
    <path d="M 86.4 256.68 
L 489.6 256.68 
" style="fill:none;stroke:#f0f0f0;stroke-linecap:square;stroke-linejoin:miter;stroke-width:0.25;"/>
   </g>
   <g id="patch_6">
    <path d="M 86.4 49.68 
L 489.6 49.68 
" style="fill:none;stroke:#f0f0f0;stroke-linecap:square;stroke-linejoin:miter;"/>
   </g>
  </g>
  <g id="axes_2">
   <g id="patch_7">
    <path d="M 86.4 339.48 
L 489.6 339.48 
L 489.6 256.68 
L 86.4 256.68 
z
" style="fill:#fafafa;"/>
   </g>
   <g id="matplotlib.axis_3">
    <g id="xtick_9">
     <g id="line2d_31">
      <path clip-path="url(#p2552ad9a20)" d="M 114.31088 339.48 
L 114.31088 256.68 
" style="fill:none;stroke:#d0d0d0;stroke-linecap:square;stroke-width:0.8;"/>
     </g>
     <g id="line2d_32">
      <g>
       <use style="fill:#101010;stroke:#101010;stroke-width:0.8;" x="114.31088" xlink:href="#mc559679ce7" y="339.48"/>
      </g>
     </g>
     <g id="text_8">
      <!-- Jan 04 -->
      <g style="fill:#101010;" transform="translate(105.189203 373.998607)rotate(-45)scale(0.1 -0.1)">
       <defs>
        <path d="M 9.8125 72.90625 
L 19.671875 72.90625 
L 19.671875 5.078125 
Q 19.671875 -8.109375 14.671875 -14.0625 
Q 9.671875 -20.015625 -1.421875 -20.015625 
L -5.171875 -20.015625 
L -5.171875 -11.71875 
L -2.09375 -11.71875 
Q 4.4375 -11.71875 7.125 -8.046875 
Q 9.8125 -4.390625 9.8125 5.078125 
z
" id="DejaVuSans-74"/>
        <path d="M 34.28125 27.484375 
Q 23.390625 27.484375 19.1875 25 
Q 14.984375 22.515625 14.984375 16.5 
Q 14.984375 11.71875 18.140625 8.90625 
Q 21.296875 6.109375 26.703125 6.109375 
Q 34.1875 6.109375 38.703125 11.40625 
Q 43.21875 16.703125 43.21875 25.484375 
L 43.21875 27.484375 
z
M 52.203125 31.203125 
L 52.203125 0 
L 43.21875 0 
L 43.21875 8.296875 
Q 40.140625 3.328125 35.546875 0.953125 
Q 30.953125 -1.421875 24.3125 -1.421875 
Q 15.921875 -1.421875 10.953125 3.296875 
Q 6 8.015625 6 15.921875 
Q 6 25.140625 12.171875 29.828125 
Q 18.359375 34.515625 30.609375 34.515625 
L 43.21875 34.515625 
L 43.21875 35.40625 
Q 43.21875 41.609375 39.140625 45 
Q 35.0625 48.390625 27.6875 48.390625 
Q 23 48.390625 18.546875 47.265625 
Q 14.109375 46.140625 10.015625 43.890625 
L 10.015625 52.203125 
Q 14.9375 54.109375 19.578125 55.046875 
Q 24.21875 56 28.609375 56 
Q 40.484375 56 46.34375 49.84375 
Q 52.203125 43.703125 52.203125 31.203125 
z
" id="DejaVuSans-97"/>
        <path d="M 54.890625 33.015625 
L 54.890625 0 
L 45.90625 0 
L 45.90625 32.71875 
Q 45.90625 40.484375 42.875 44.328125 
Q 39.84375 48.1875 33.796875 48.1875 
Q 26.515625 48.1875 22.3125 43.546875 
Q 18.109375 38.921875 18.109375 30.90625 
L 18.109375 0 
L 9.078125 0 
L 9.078125 54.6875 
L 18.109375 54.6875 
L 18.109375 46.1875 
Q 21.34375 51.125 25.703125 53.5625 
Q 30.078125 56 35.796875 56 
Q 45.21875 56 50.046875 50.171875 
Q 54.890625 44.34375 54.890625 33.015625 
z
" id="DejaVuSans-110"/>
        <path id="DejaVuSans-32"/>
        <path d="M 37.796875 64.3125 
L 12.890625 25.390625 
L 37.796875 25.390625 
z
M 35.203125 72.90625 
L 47.609375 72.90625 
L 47.609375 25.390625 
L 58.015625 25.390625 
L 58.015625 17.1875 
L 47.609375 17.1875 
L 47.609375 0 
L 37.796875 0 
L 37.796875 17.1875 
L 4.890625 17.1875 
L 4.890625 26.703125 
z
" id="DejaVuSans-52"/>
       </defs>
       <use xlink:href="#DejaVuSans-74"/>
       <use x="29.492188" xlink:href="#DejaVuSans-97"/>
       <use x="90.771484" xlink:href="#DejaVuSans-110"/>
       <use x="154.150391" xlink:href="#DejaVuSans-32"/>
       <use x="185.9375" xlink:href="#DejaVuSans-48"/>
       <use x="249.560547" xlink:href="#DejaVuSans-52"/>
      </g>
     </g>
    </g>
    <g id="xtick_10">
     <g id="line2d_33">
      <path clip-path="url(#p2552ad9a20)" d="M 162.963295 339.48 
L 162.963295 256.68 
" style="fill:none;stroke:#d0d0d0;stroke-linecap:square;stroke-width:0.8;"/>
     </g>
     <g id="line2d_34">
      <g>
       <use style="fill:#101010;stroke:#101010;stroke-width:0.8;" x="162.963295" xlink:href="#mc559679ce7" y="339.48"/>
      </g>
     </g>
     <g id="text_9">
      <!-- Feb 23 -->
      <g style="fill:#101010;" transform="translate(153.032864 375.616114)rotate(-45)scale(0.1 -0.1)">
       <defs>
        <path d="M 9.8125 72.90625 
L 51.703125 72.90625 
L 51.703125 64.59375 
L 19.671875 64.59375 
L 19.671875 43.109375 
L 48.578125 43.109375 
L 48.578125 34.8125 
L 19.671875 34.8125 
L 19.671875 0 
L 9.8125 0 
z
" id="DejaVuSans-70"/>
        <path d="M 48.6875 27.296875 
Q 48.6875 37.203125 44.609375 42.84375 
Q 40.53125 48.484375 33.40625 48.484375 
Q 26.265625 48.484375 22.1875 42.84375 
Q 18.109375 37.203125 18.109375 27.296875 
Q 18.109375 17.390625 22.1875 11.75 
Q 26.265625 6.109375 33.40625 6.109375 
Q 40.53125 6.109375 44.609375 11.75 
Q 48.6875 17.390625 48.6875 27.296875 
z
M 18.109375 46.390625 
Q 20.953125 51.265625 25.265625 53.625 
Q 29.59375 56 35.59375 56 
Q 45.5625 56 51.78125 48.09375 
Q 58.015625 40.1875 58.015625 27.296875 
Q 58.015625 14.40625 51.78125 6.484375 
Q 45.5625 -1.421875 35.59375 -1.421875 
Q 29.59375 -1.421875 25.265625 0.953125 
Q 20.953125 3.328125 18.109375 8.203125 
L 18.109375 0 
L 9.078125 0 
L 9.078125 75.984375 
L 18.109375 75.984375 
z
" id="DejaVuSans-98"/>
        <path d="M 19.1875 8.296875 
L 53.609375 8.296875 
L 53.609375 0 
L 7.328125 0 
L 7.328125 8.296875 
Q 12.9375 14.109375 22.625 23.890625 
Q 32.328125 33.6875 34.8125 36.53125 
Q 39.546875 41.84375 41.421875 45.53125 
Q 43.3125 49.21875 43.3125 52.78125 
Q 43.3125 58.59375 39.234375 62.25 
Q 35.15625 65.921875 28.609375 65.921875 
Q 23.96875 65.921875 18.8125 64.3125 
Q 13.671875 62.703125 7.8125 59.421875 
L 7.8125 69.390625 
Q 13.765625 71.78125 18.9375 73 
Q 24.125 74.21875 28.421875 74.21875 
Q 39.75 74.21875 46.484375 68.546875 
Q 53.21875 62.890625 53.21875 53.421875 
Q 53.21875 48.921875 51.53125 44.890625 
Q 49.859375 40.875 45.40625 35.40625 
Q 44.1875 33.984375 37.640625 27.21875 
Q 31.109375 20.453125 19.1875 8.296875 
z
" id="DejaVuSans-50"/>
        <path d="M 40.578125 39.3125 
Q 47.65625 37.796875 51.625 33 
Q 55.609375 28.21875 55.609375 21.1875 
Q 55.609375 10.40625 48.1875 4.484375 
Q 40.765625 -1.421875 27.09375 -1.421875 
Q 22.515625 -1.421875 17.65625 -0.515625 
Q 12.796875 0.390625 7.625 2.203125 
L 7.625 11.71875 
Q 11.71875 9.328125 16.59375 8.109375 
Q 21.484375 6.890625 26.8125 6.890625 
Q 36.078125 6.890625 40.9375 10.546875 
Q 45.796875 14.203125 45.796875 21.1875 
Q 45.796875 27.640625 41.28125 31.265625 
Q 36.765625 34.90625 28.71875 34.90625 
L 20.21875 34.90625 
L 20.21875 43.015625 
L 29.109375 43.015625 
Q 36.375 43.015625 40.234375 45.921875 
Q 44.09375 48.828125 44.09375 54.296875 
Q 44.09375 59.90625 40.109375 62.90625 
Q 36.140625 65.921875 28.71875 65.921875 
Q 24.65625 65.921875 20.015625 65.03125 
Q 15.375 64.15625 9.8125 62.3125 
L 9.8125 71.09375 
Q 15.4375 72.65625 20.34375 73.4375 
Q 25.25 74.21875 29.59375 74.21875 
Q 40.828125 74.21875 47.359375 69.109375 
Q 53.90625 64.015625 53.90625 55.328125 
Q 53.90625 49.265625 50.4375 45.09375 
Q 46.96875 40.921875 40.578125 39.3125 
z
" id="DejaVuSans-51"/>
       </defs>
       <use xlink:href="#DejaVuSans-70"/>
       <use x="52.019531" xlink:href="#DejaVuSans-101"/>
       <use x="113.542969" xlink:href="#DejaVuSans-98"/>
       <use x="177.019531" xlink:href="#DejaVuSans-32"/>
       <use x="208.806641" xlink:href="#DejaVuSans-50"/>
       <use x="272.429688" xlink:href="#DejaVuSans-51"/>
      </g>
     </g>
    </g>
    <g id="xtick_11">
     <g id="line2d_35">
      <path clip-path="url(#p2552ad9a20)" d="M 211.615709 339.48 
L 211.615709 256.68 
" style="fill:none;stroke:#d0d0d0;stroke-linecap:square;stroke-width:0.8;"/>
     </g>
     <g id="line2d_36">
      <g>
       <use style="fill:#101010;stroke:#101010;stroke-width:0.8;" x="211.615709" xlink:href="#mc559679ce7" y="339.48"/>
      </g>
     </g>
     <g id="text_10">
      <!-- Apr 14 -->
      <g style="fill:#101010;" transform="translate(201.827805 375.331062)rotate(-45)scale(0.1 -0.1)">
       <defs>
        <path d="M 34.1875 63.1875 
L 20.796875 26.90625 
L 47.609375 26.90625 
z
M 28.609375 72.90625 
L 39.796875 72.90625 
L 67.578125 0 
L 57.328125 0 
L 50.6875 18.703125 
L 17.828125 18.703125 
L 11.1875 0 
L 0.78125 0 
z
" id="DejaVuSans-65"/>
        <path d="M 18.109375 8.203125 
L 18.109375 -20.796875 
L 9.078125 -20.796875 
L 9.078125 54.6875 
L 18.109375 54.6875 
L 18.109375 46.390625 
Q 20.953125 51.265625 25.265625 53.625 
Q 29.59375 56 35.59375 56 
Q 45.5625 56 51.78125 48.09375 
Q 58.015625 40.1875 58.015625 27.296875 
Q 58.015625 14.40625 51.78125 6.484375 
Q 45.5625 -1.421875 35.59375 -1.421875 
Q 29.59375 -1.421875 25.265625 0.953125 
Q 20.953125 3.328125 18.109375 8.203125 
z
M 48.6875 27.296875 
Q 48.6875 37.203125 44.609375 42.84375 
Q 40.53125 48.484375 33.40625 48.484375 
Q 26.265625 48.484375 22.1875 42.84375 
Q 18.109375 37.203125 18.109375 27.296875 
Q 18.109375 17.390625 22.1875 11.75 
Q 26.265625 6.109375 33.40625 6.109375 
Q 40.53125 6.109375 44.609375 11.75 
Q 48.6875 17.390625 48.6875 27.296875 
z
" id="DejaVuSans-112"/>
       </defs>
       <use xlink:href="#DejaVuSans-65"/>
       <use x="68.408203" xlink:href="#DejaVuSans-112"/>
       <use x="131.884766" xlink:href="#DejaVuSans-114"/>
       <use x="172.998047" xlink:href="#DejaVuSans-32"/>
       <use x="204.785156" xlink:href="#DejaVuSans-49"/>
       <use x="268.408203" xlink:href="#DejaVuSans-52"/>
      </g>
     </g>
    </g>
    <g id="xtick_12">
     <g id="line2d_37">
      <path clip-path="url(#p2552ad9a20)" d="M 260.268124 339.48 
L 260.268124 256.68 
" style="fill:none;stroke:#d0d0d0;stroke-linecap:square;stroke-width:0.8;"/>
     </g>
     <g id="line2d_38">
      <g>
       <use style="fill:#101010;stroke:#101010;stroke-width:0.8;" x="260.268124" xlink:href="#mc559679ce7" y="339.48"/>
      </g>
     </g>
     <g id="text_11">
      <!-- Jun 03 -->
      <g style="fill:#101010;" transform="translate(251.072421 374.146658)rotate(-45)scale(0.1 -0.1)">
       <defs>
        <path d="M 8.5 21.578125 
L 8.5 54.6875 
L 17.484375 54.6875 
L 17.484375 21.921875 
Q 17.484375 14.15625 20.5 10.265625 
Q 23.53125 6.390625 29.59375 6.390625 
Q 36.859375 6.390625 41.078125 11.03125 
Q 45.3125 15.671875 45.3125 23.6875 
L 45.3125 54.6875 
L 54.296875 54.6875 
L 54.296875 0 
L 45.3125 0 
L 45.3125 8.40625 
Q 42.046875 3.421875 37.71875 1 
Q 33.40625 -1.421875 27.6875 -1.421875 
Q 18.265625 -1.421875 13.375 4.4375 
Q 8.5 10.296875 8.5 21.578125 
z
M 31.109375 56 
z
" id="DejaVuSans-117"/>
       </defs>
       <use xlink:href="#DejaVuSans-74"/>
       <use x="29.492188" xlink:href="#DejaVuSans-117"/>
       <use x="92.871094" xlink:href="#DejaVuSans-110"/>
       <use x="156.25" xlink:href="#DejaVuSans-32"/>
       <use x="188.037109" xlink:href="#DejaVuSans-48"/>
       <use x="251.660156" xlink:href="#DejaVuSans-51"/>
      </g>
     </g>
    </g>
    <g id="xtick_13">
     <g id="line2d_39">
      <path clip-path="url(#p2552ad9a20)" d="M 308.920538 339.48 
L 308.920538 256.68 
" style="fill:none;stroke:#d0d0d0;stroke-linecap:square;stroke-width:0.8;"/>
     </g>
     <g id="line2d_40">
      <g>
       <use style="fill:#101010;stroke:#101010;stroke-width:0.8;" x="308.920538" xlink:href="#mc559679ce7" y="339.48"/>
      </g>
     </g>
     <g id="text_12">
      <!-- Jul 23 -->
      <g style="fill:#101010;" transform="translate(300.983265 371.629799)rotate(-45)scale(0.1 -0.1)">
       <defs>
        <path d="M 9.421875 75.984375 
L 18.40625 75.984375 
L 18.40625 0 
L 9.421875 0 
z
" id="DejaVuSans-108"/>
       </defs>
       <use xlink:href="#DejaVuSans-74"/>
       <use x="29.492188" xlink:href="#DejaVuSans-117"/>
       <use x="92.871094" xlink:href="#DejaVuSans-108"/>
       <use x="120.654297" xlink:href="#DejaVuSans-32"/>
       <use x="152.441406" xlink:href="#DejaVuSans-50"/>
       <use x="216.064453" xlink:href="#DejaVuSans-51"/>
      </g>
     </g>
    </g>
    <g id="xtick_14">
     <g id="line2d_41">
      <path clip-path="url(#p2552ad9a20)" d="M 357.572953 339.48 
L 357.572953 256.68 
" style="fill:none;stroke:#d0d0d0;stroke-linecap:square;stroke-width:0.8;"/>
     </g>
     <g id="line2d_42">
      <g>
       <use style="fill:#101010;stroke:#101010;stroke-width:0.8;" x="357.572953" xlink:href="#mc559679ce7" y="339.48"/>
      </g>
     </g>
     <g id="text_13">
      <!-- Sep 11 -->
      <g style="fill:#101010;" transform="translate(347.23704 376.427077)rotate(-45)scale(0.1 -0.1)">
       <defs>
        <path d="M 53.515625 70.515625 
L 53.515625 60.890625 
Q 47.90625 63.578125 42.921875 64.890625 
Q 37.9375 66.21875 33.296875 66.21875 
Q 25.25 66.21875 20.875 63.09375 
Q 16.5 59.96875 16.5 54.203125 
Q 16.5 49.359375 19.40625 46.890625 
Q 22.3125 44.4375 30.421875 42.921875 
L 36.375 41.703125 
Q 47.40625 39.59375 52.65625 34.296875 
Q 57.90625 29 57.90625 20.125 
Q 57.90625 9.515625 50.796875 4.046875 
Q 43.703125 -1.421875 29.984375 -1.421875 
Q 24.8125 -1.421875 18.96875 -0.25 
Q 13.140625 0.921875 6.890625 3.21875 
L 6.890625 13.375 
Q 12.890625 10.015625 18.65625 8.296875 
Q 24.421875 6.59375 29.984375 6.59375 
Q 38.421875 6.59375 43.015625 9.90625 
Q 47.609375 13.234375 47.609375 19.390625 
Q 47.609375 24.75 44.3125 27.78125 
Q 41.015625 30.8125 33.5 32.328125 
L 27.484375 33.5 
Q 16.453125 35.6875 11.515625 40.375 
Q 6.59375 45.0625 6.59375 53.421875 
Q 6.59375 63.09375 13.40625 68.65625 
Q 20.21875 74.21875 32.171875 74.21875 
Q 37.3125 74.21875 42.625 73.28125 
Q 47.953125 72.359375 53.515625 70.515625 
z
" id="DejaVuSans-83"/>
       </defs>
       <use xlink:href="#DejaVuSans-83"/>
       <use x="63.476562" xlink:href="#DejaVuSans-101"/>
       <use x="125" xlink:href="#DejaVuSans-112"/>
       <use x="188.476562" xlink:href="#DejaVuSans-32"/>
       <use x="220.263672" xlink:href="#DejaVuSans-49"/>
       <use x="283.886719" xlink:href="#DejaVuSans-49"/>
      </g>
     </g>
    </g>
    <g id="xtick_15">
     <g id="line2d_43">
      <path clip-path="url(#p2552ad9a20)" d="M 406.225367 339.48 
L 406.225367 256.68 
" style="fill:none;stroke:#d0d0d0;stroke-linecap:square;stroke-width:0.8;"/>
     </g>
     <g id="line2d_44">
      <g>
       <use style="fill:#101010;stroke:#101010;stroke-width:0.8;" x="406.225367" xlink:href="#mc559679ce7" y="339.48"/>
      </g>
     </g>
     <g id="text_14">
      <!-- Oct 31 -->
      <g style="fill:#101010;" transform="translate(396.440777 375.324432)rotate(-45)scale(0.1 -0.1)">
       <defs>
        <path d="M 39.40625 66.21875 
Q 28.65625 66.21875 22.328125 58.203125 
Q 16.015625 50.203125 16.015625 36.375 
Q 16.015625 22.609375 22.328125 14.59375 
Q 28.65625 6.59375 39.40625 6.59375 
Q 50.140625 6.59375 56.421875 14.59375 
Q 62.703125 22.609375 62.703125 36.375 
Q 62.703125 50.203125 56.421875 58.203125 
Q 50.140625 66.21875 39.40625 66.21875 
z
M 39.40625 74.21875 
Q 54.734375 74.21875 63.90625 63.9375 
Q 73.09375 53.65625 73.09375 36.375 
Q 73.09375 19.140625 63.90625 8.859375 
Q 54.734375 -1.421875 39.40625 -1.421875 
Q 24.03125 -1.421875 14.8125 8.828125 
Q 5.609375 19.09375 5.609375 36.375 
Q 5.609375 53.65625 14.8125 63.9375 
Q 24.03125 74.21875 39.40625 74.21875 
z
" id="DejaVuSans-79"/>
        <path d="M 18.3125 70.21875 
L 18.3125 54.6875 
L 36.8125 54.6875 
L 36.8125 47.703125 
L 18.3125 47.703125 
L 18.3125 18.015625 
Q 18.3125 11.328125 20.140625 9.421875 
Q 21.96875 7.515625 27.59375 7.515625 
L 36.8125 7.515625 
L 36.8125 0 
L 27.59375 0 
Q 17.1875 0 13.234375 3.875 
Q 9.28125 7.765625 9.28125 18.015625 
L 9.28125 47.703125 
L 2.6875 47.703125 
L 2.6875 54.6875 
L 9.28125 54.6875 
L 9.28125 70.21875 
z
" id="DejaVuSans-116"/>
       </defs>
       <use xlink:href="#DejaVuSans-79"/>
       <use x="78.710938" xlink:href="#DejaVuSans-99"/>
       <use x="133.691406" xlink:href="#DejaVuSans-116"/>
       <use x="172.900391" xlink:href="#DejaVuSans-32"/>
       <use x="204.6875" xlink:href="#DejaVuSans-51"/>
       <use x="268.310547" xlink:href="#DejaVuSans-49"/>
      </g>
     </g>
    </g>
    <g id="xtick_16">
     <g id="line2d_45">
      <path clip-path="url(#p2552ad9a20)" d="M 454.877782 339.48 
L 454.877782 256.68 
" style="fill:none;stroke:#d0d0d0;stroke-linecap:square;stroke-width:0.8;"/>
     </g>
     <g id="line2d_46">
      <g>
       <use style="fill:#101010;stroke:#101010;stroke-width:0.8;" x="454.877782" xlink:href="#mc559679ce7" y="339.48"/>
      </g>
     </g>
     <g id="text_15">
      <!-- Dec 20 -->
      <g style="fill:#101010;" transform="translate(444.36454 376.781735)rotate(-45)scale(0.1 -0.1)">
       <defs>
        <path d="M 19.671875 64.796875 
L 19.671875 8.109375 
L 31.59375 8.109375 
Q 46.6875 8.109375 53.6875 14.9375 
Q 60.6875 21.78125 60.6875 36.53125 
Q 60.6875 51.171875 53.6875 57.984375 
Q 46.6875 64.796875 31.59375 64.796875 
z
M 9.8125 72.90625 
L 30.078125 72.90625 
Q 51.265625 72.90625 61.171875 64.09375 
Q 71.09375 55.28125 71.09375 36.53125 
Q 71.09375 17.671875 61.125 8.828125 
Q 51.171875 0 30.078125 0 
L 9.8125 0 
z
" id="DejaVuSans-68"/>
       </defs>
       <use xlink:href="#DejaVuSans-68"/>
       <use x="77.001953" xlink:href="#DejaVuSans-101"/>
       <use x="138.525391" xlink:href="#DejaVuSans-99"/>
       <use x="193.505859" xlink:href="#DejaVuSans-32"/>
       <use x="225.292969" xlink:href="#DejaVuSans-50"/>
       <use x="288.916016" xlink:href="#DejaVuSans-48"/>
      </g>
     </g>
    </g>
   </g>
   <g id="matplotlib.axis_4">
    <g id="ytick_7">
     <g id="line2d_47">
      <path clip-path="url(#p2552ad9a20)" d="M 86.4 339.48 
L 489.6 339.48 
" style="fill:none;stroke:#d0d0d0;stroke-linecap:square;stroke-width:0.8;"/>
     </g>
     <g id="line2d_48">
      <g>
       <use style="fill:#101010;stroke:#101010;stroke-width:0.8;" x="489.6" xlink:href="#mb2618c7ad3" y="339.48"/>
      </g>
     </g>
     <g id="text_16">
      <!-- 0 -->
      <g style="fill:#101010;" transform="translate(496.6 343.279219)scale(0.1 -0.1)">
       <use xlink:href="#DejaVuSans-48"/>
      </g>
     </g>
    </g>
    <g id="ytick_8">
     <g id="line2d_49">
      <path clip-path="url(#p2552ad9a20)" d="M 86.4 314.356095 
L 489.6 314.356095 
" style="fill:none;stroke:#d0d0d0;stroke-linecap:square;stroke-width:0.8;"/>
     </g>
     <g id="line2d_50">
      <g>
       <use style="fill:#101010;stroke:#101010;stroke-width:0.8;" x="489.6" xlink:href="#mb2618c7ad3" y="314.356095"/>
      </g>
     </g>
     <g id="text_17">
      <!-- 10000000 -->
      <g style="fill:#101010;" transform="translate(496.6 318.155314)scale(0.1 -0.1)">
       <use xlink:href="#DejaVuSans-49"/>
       <use x="63.623047" xlink:href="#DejaVuSans-48"/>
       <use x="127.246094" xlink:href="#DejaVuSans-48"/>
       <use x="190.869141" xlink:href="#DejaVuSans-48"/>
       <use x="254.492188" xlink:href="#DejaVuSans-48"/>
       <use x="318.115234" xlink:href="#DejaVuSans-48"/>
       <use x="381.738281" xlink:href="#DejaVuSans-48"/>
       <use x="445.361328" xlink:href="#DejaVuSans-48"/>
      </g>
     </g>
    </g>
    <g id="ytick_9">
     <g id="line2d_51">
      <path clip-path="url(#p2552ad9a20)" d="M 86.4 289.23219 
L 489.6 289.23219 
" style="fill:none;stroke:#d0d0d0;stroke-linecap:square;stroke-width:0.8;"/>
     </g>
     <g id="line2d_52">
      <g>
       <use style="fill:#101010;stroke:#101010;stroke-width:0.8;" x="489.6" xlink:href="#mb2618c7ad3" y="289.23219"/>
      </g>
     </g>
     <g id="text_18">
      <!-- 20000000 -->
      <g style="fill:#101010;" transform="translate(496.6 293.031408)scale(0.1 -0.1)">
       <use xlink:href="#DejaVuSans-50"/>
       <use x="63.623047" xlink:href="#DejaVuSans-48"/>
       <use x="127.246094" xlink:href="#DejaVuSans-48"/>
       <use x="190.869141" xlink:href="#DejaVuSans-48"/>
       <use x="254.492188" xlink:href="#DejaVuSans-48"/>
       <use x="318.115234" xlink:href="#DejaVuSans-48"/>
       <use x="381.738281" xlink:href="#DejaVuSans-48"/>
       <use x="445.361328" xlink:href="#DejaVuSans-48"/>
      </g>
     </g>
    </g>
    <g id="ytick_10">
     <g id="line2d_53">
      <path clip-path="url(#p2552ad9a20)" d="M 86.4 264.108285 
L 489.6 264.108285 
" style="fill:none;stroke:#d0d0d0;stroke-linecap:square;stroke-width:0.8;"/>
     </g>
     <g id="line2d_54">
      <g>
       <use style="fill:#101010;stroke:#101010;stroke-width:0.8;" x="489.6" xlink:href="#mb2618c7ad3" y="264.108285"/>
      </g>
     </g>
     <g id="text_19">
      <!-- 30000000 -->
      <g style="fill:#101010;" transform="translate(496.6 267.907503)scale(0.1 -0.1)">
       <use xlink:href="#DejaVuSans-51"/>
       <use x="63.623047" xlink:href="#DejaVuSans-48"/>
       <use x="127.246094" xlink:href="#DejaVuSans-48"/>
       <use x="190.869141" xlink:href="#DejaVuSans-48"/>
       <use x="254.492188" xlink:href="#DejaVuSans-48"/>
       <use x="318.115234" xlink:href="#DejaVuSans-48"/>
       <use x="381.738281" xlink:href="#DejaVuSans-48"/>
       <use x="445.361328" xlink:href="#DejaVuSans-48"/>
      </g>
     </g>
    </g>
    <g id="text_20">
     <!-- Volume -->
     <g style="fill:#101010;" transform="translate(560.618125 320.39625)rotate(-90)scale(0.12 -0.12)">
      <defs>
       <path d="M 28.609375 0 
L 0.78125 72.90625 
L 11.078125 72.90625 
L 34.1875 11.53125 
L 57.328125 72.90625 
L 67.578125 72.90625 
L 39.796875 0 
z
" id="DejaVuSans-86"/>
       <path d="M 30.609375 48.390625 
Q 23.390625 48.390625 19.1875 42.75 
Q 14.984375 37.109375 14.984375 27.296875 
Q 14.984375 17.484375 19.15625 11.84375 
Q 23.34375 6.203125 30.609375 6.203125 
Q 37.796875 6.203125 41.984375 11.859375 
Q 46.1875 17.53125 46.1875 27.296875 
Q 46.1875 37.015625 41.984375 42.703125 
Q 37.796875 48.390625 30.609375 48.390625 
z
M 30.609375 56 
Q 42.328125 56 49.015625 48.375 
Q 55.71875 40.765625 55.71875 27.296875 
Q 55.71875 13.875 49.015625 6.21875 
Q 42.328125 -1.421875 30.609375 -1.421875 
Q 18.84375 -1.421875 12.171875 6.21875 
Q 5.515625 13.875 5.515625 27.296875 
Q 5.515625 40.765625 12.171875 48.375 
Q 18.84375 56 30.609375 56 
z
" id="DejaVuSans-111"/>
       <path d="M 52 44.1875 
Q 55.375 50.25 60.0625 53.125 
Q 64.75 56 71.09375 56 
Q 79.640625 56 84.28125 50.015625 
Q 88.921875 44.046875 88.921875 33.015625 
L 88.921875 0 
L 79.890625 0 
L 79.890625 32.71875 
Q 79.890625 40.578125 77.09375 44.375 
Q 74.3125 48.1875 68.609375 48.1875 
Q 61.625 48.1875 57.5625 43.546875 
Q 53.515625 38.921875 53.515625 30.90625 
L 53.515625 0 
L 44.484375 0 
L 44.484375 32.71875 
Q 44.484375 40.625 41.703125 44.40625 
Q 38.921875 48.1875 33.109375 48.1875 
Q 26.21875 48.1875 22.15625 43.53125 
Q 18.109375 38.875 18.109375 30.90625 
L 18.109375 0 
L 9.078125 0 
L 9.078125 54.6875 
L 18.109375 54.6875 
L 18.109375 46.1875 
Q 21.1875 51.21875 25.484375 53.609375 
Q 29.78125 56 35.6875 56 
Q 41.65625 56 45.828125 52.96875 
Q 50 49.953125 52 44.1875 
z
" id="DejaVuSans-109"/>
      </defs>
      <use xlink:href="#DejaVuSans-86"/>
      <use x="60.658203" xlink:href="#DejaVuSans-111"/>
      <use x="121.839844" xlink:href="#DejaVuSans-108"/>
      <use x="149.623047" xlink:href="#DejaVuSans-117"/>
      <use x="213.001953" xlink:href="#DejaVuSans-109"/>
      <use x="310.414062" xlink:href="#DejaVuSans-101"/>
     </g>
    </g>
   </g>
   <g id="patch_8">
    <path clip-path="url(#p2552ad9a20)" d="M 109.72562 339.48 
L 113.057851 339.48 
L 113.057851 285.291003 
L 109.72562 285.291003 
z
" style="fill:#4dc790;"/>
   </g>
   <g id="patch_9">
    <path clip-path="url(#p2552ad9a20)" d="M 116.536958 339.48 
L 119.869189 339.48 
L 119.869189 278.765822 
L 116.536958 278.765822 
z
" style="fill:#4dc790;"/>
   </g>
   <g id="patch_10">
    <path clip-path="url(#p2552ad9a20)" d="M 123.348296 339.48 
L 126.680527 339.48 
L 126.680527 285.112874 
L 123.348296 285.112874 
z
" style="fill:#4dc790;"/>
   </g>
   <g id="patch_11">
    <path clip-path="url(#p2552ad9a20)" d="M 130.159634 339.48 
L 133.491865 339.48 
L 133.491865 298.124293 
L 130.159634 298.124293 
z
" style="fill:#fd6b6c;"/>
   </g>
   <g id="patch_12">
    <path clip-path="url(#p2552ad9a20)" d="M 136.970972 339.48 
L 140.303203 339.48 
L 140.303203 274.202316 
L 136.970972 274.202316 
z
" style="fill:#4dc790;"/>
   </g>
   <g id="patch_13">
    <path clip-path="url(#p2552ad9a20)" d="M 143.78231 339.48 
L 147.114541 339.48 
L 147.114541 276.8858 
L 143.78231 276.8858 
z
" style="fill:#fd6b6c;"/>
   </g>
   <g id="patch_14">
    <path clip-path="url(#p2552ad9a20)" d="M 150.593648 339.48 
L 153.925879 339.48 
L 153.925879 280.75262 
L 150.593648 280.75262 
z
" style="fill:#4dc790;"/>
   </g>
   <g id="patch_15">
    <path clip-path="url(#p2552ad9a20)" d="M 157.404986 339.48 
L 160.737217 339.48 
L 160.737217 275.820798 
L 157.404986 275.820798 
z
" style="fill:#4dc790;"/>
   </g>
   <g id="patch_16">
    <path clip-path="url(#p2552ad9a20)" d="M 164.216324 339.48 
L 167.548555 339.48 
L 167.548555 297.148732 
L 164.216324 297.148732 
z
" style="fill:#fd6b6c;"/>
   </g>
   <g id="patch_17">
    <path clip-path="url(#p2552ad9a20)" d="M 171.027662 339.48 
L 174.359893 339.48 
L 174.359893 301.47934 
L 171.027662 301.47934 
z
" style="fill:#4dc790;"/>
   </g>
   <g id="patch_18">
    <path clip-path="url(#p2552ad9a20)" d="M 177.839 339.48 
L 181.171231 339.48 
L 181.171231 285.287737 
L 177.839 285.287737 
z
" style="fill:#4dc790;"/>
   </g>
   <g id="patch_19">
    <path clip-path="url(#p2552ad9a20)" d="M 184.650338 339.48 
L 187.982569 339.48 
L 187.982569 274.924126 
L 184.650338 274.924126 
z
" style="fill:#fd6b6c;"/>
   </g>
   <g id="patch_20">
    <path clip-path="url(#p2552ad9a20)" d="M 191.461676 339.48 
L 194.793908 339.48 
L 194.793908 279.162529 
L 191.461676 279.162529 
z
" style="fill:#4dc790;"/>
   </g>
   <g id="patch_21">
    <path clip-path="url(#p2552ad9a20)" d="M 198.273014 339.48 
L 201.605246 339.48 
L 201.605246 291.171504 
L 198.273014 291.171504 
z
" style="fill:#4dc790;"/>
   </g>
   <g id="patch_22">
    <path clip-path="url(#p2552ad9a20)" d="M 205.084352 339.48 
L 208.416584 339.48 
L 208.416584 281.241532 
L 205.084352 281.241532 
z
" style="fill:#fd6b6c;"/>
   </g>
   <g id="patch_23">
    <path clip-path="url(#p2552ad9a20)" d="M 211.89569 339.48 
L 215.227922 339.48 
L 215.227922 291.36747 
L 211.89569 291.36747 
z
" style="fill:#4dc790;"/>
   </g>
   <g id="patch_24">
    <path clip-path="url(#p2552ad9a20)" d="M 218.707028 339.48 
L 222.03926 339.48 
L 222.03926 287.125299 
L 218.707028 287.125299 
z
" style="fill:#4dc790;"/>
   </g>
   <g id="patch_25">
    <path clip-path="url(#p2552ad9a20)" d="M 225.518366 339.48 
L 228.850598 339.48 
L 228.850598 300.98264 
L 225.518366 300.98264 
z
" style="fill:#fd6b6c;"/>
   </g>
   <g id="patch_26">
    <path clip-path="url(#p2552ad9a20)" d="M 232.329704 339.48 
L 235.661936 339.48 
L 235.661936 282.356782 
L 232.329704 282.356782 
z
" style="fill:#fd6b6c;"/>
   </g>
   <g id="patch_27">
    <path clip-path="url(#p2552ad9a20)" d="M 239.141042 339.48 
L 242.473274 339.48 
L 242.473274 278.253043 
L 239.141042 278.253043 
z
" style="fill:#4dc790;"/>
   </g>
   <g id="patch_28">
    <path clip-path="url(#p2552ad9a20)" d="M 245.95238 339.48 
L 249.284612 339.48 
L 249.284612 290.622044 
L 245.95238 290.622044 
z
" style="fill:#4dc790;"/>
   </g>
   <g id="patch_29">
    <path clip-path="url(#p2552ad9a20)" d="M 252.763718 339.48 
L 256.09595 339.48 
L 256.09595 276.726012 
L 252.763718 276.726012 
z
" style="fill:#4dc790;"/>
   </g>
   <g id="patch_30">
    <path clip-path="url(#p2552ad9a20)" d="M 259.575056 339.48 
L 262.907288 339.48 
L 262.907288 290.689879 
L 259.575056 290.689879 
z
" style="fill:#4dc790;"/>
   </g>
   <g id="patch_31">
    <path clip-path="url(#p2552ad9a20)" d="M 266.386394 339.48 
L 269.718626 339.48 
L 269.718626 267.684924 
L 266.386394 267.684924 
z
" style="fill:#4dc790;"/>
   </g>
   <g id="patch_32">
    <path clip-path="url(#p2552ad9a20)" d="M 273.197732 339.48 
L 276.529964 339.48 
L 276.529964 294.291139 
L 273.197732 294.291139 
z
" style="fill:#4dc790;"/>
   </g>
   <g id="patch_33">
    <path clip-path="url(#p2552ad9a20)" d="M 280.00907 339.48 
L 283.341302 339.48 
L 283.341302 293.93237 
L 280.00907 293.93237 
z
" style="fill:#fd6b6c;"/>
   </g>
   <g id="patch_34">
    <path clip-path="url(#p2552ad9a20)" d="M 286.820408 339.48 
L 290.15264 339.48 
L 290.15264 285.613845 
L 286.820408 285.613845 
z
" style="fill:#4dc790;"/>
   </g>
   <g id="patch_35">
    <path clip-path="url(#p2552ad9a20)" d="M 293.631746 339.48 
L 296.963978 339.48 
L 296.963978 288.215928 
L 293.631746 288.215928 
z
" style="fill:#fd6b6c;"/>
   </g>
   <g id="patch_36">
    <path clip-path="url(#p2552ad9a20)" d="M 300.443084 339.48 
L 303.775316 339.48 
L 303.775316 290.101979 
L 300.443084 290.101979 
z
" style="fill:#4dc790;"/>
   </g>
   <g id="patch_37">
    <path clip-path="url(#p2552ad9a20)" d="M 307.254423 339.48 
L 310.586654 339.48 
L 310.586654 280.617203 
L 307.254423 280.617203 
z
" style="fill:#fd6b6c;"/>
   </g>
   <g id="patch_38">
    <path clip-path="url(#p2552ad9a20)" d="M 314.065761 339.48 
L 317.397992 339.48 
L 317.397992 273.689537 
L 314.065761 273.689537 
z
" style="fill:#fd6b6c;"/>
   </g>
   <g id="patch_39">
    <path clip-path="url(#p2552ad9a20)" d="M 320.877099 339.48 
L 324.20933 339.48 
L 324.20933 276.06048 
L 320.877099 276.06048 
z
" style="fill:#4dc790;"/>
   </g>
   <g id="patch_40">
    <path clip-path="url(#p2552ad9a20)" d="M 327.688437 339.48 
L 331.020668 339.48 
L 331.020668 267.43268 
L 327.688437 267.43268 
z
" style="fill:#fd6b6c;"/>
   </g>
   <g id="patch_41">
    <path clip-path="url(#p2552ad9a20)" d="M 334.499775 339.48 
L 337.832006 339.48 
L 337.832006 275.398968 
L 334.499775 275.398968 
z
" style="fill:#fd6b6c;"/>
   </g>
   <g id="patch_42">
    <path clip-path="url(#p2552ad9a20)" d="M 341.311113 339.48 
L 344.643344 339.48 
L 344.643344 276.94459 
L 341.311113 276.94459 
z
" style="fill:#4dc790;"/>
   </g>
   <g id="patch_43">
    <path clip-path="url(#p2552ad9a20)" d="M 348.122451 339.48 
L 351.454682 339.48 
L 351.454682 292.704816 
L 348.122451 292.704816 
z
" style="fill:#4dc790;"/>
   </g>
   <g id="patch_44">
    <path clip-path="url(#p2552ad9a20)" d="M 354.933789 339.48 
L 358.26602 339.48 
L 358.26602 275.674074 
L 354.933789 275.674074 
z
" style="fill:#4dc790;"/>
   </g>
   <g id="patch_45">
    <path clip-path="url(#p2552ad9a20)" d="M 361.745127 339.48 
L 365.077358 339.48 
L 365.077358 271.869059 
L 361.745127 271.869059 
z
" style="fill:#4dc790;"/>
   </g>
   <g id="patch_46">
    <path clip-path="url(#p2552ad9a20)" d="M 368.556465 339.48 
L 371.888696 339.48 
L 371.888696 290.248703 
L 368.556465 290.248703 
z
" style="fill:#4dc790;"/>
   </g>
   <g id="patch_47">
    <path clip-path="url(#p2552ad9a20)" d="M 375.367803 339.48 
L 378.700034 339.48 
L 378.700034 283.164264 
L 375.367803 283.164264 
z
" style="fill:#fd6b6c;"/>
   </g>
   <g id="patch_48">
    <path clip-path="url(#p2552ad9a20)" d="M 382.179141 339.48 
L 385.511372 339.48 
L 385.511372 289.246008 
L 382.179141 289.246008 
z
" style="fill:#4dc790;"/>
   </g>
   <g id="patch_49">
    <path clip-path="url(#p2552ad9a20)" d="M 388.990479 339.48 
L 392.32271 339.48 
L 392.32271 287.28559 
L 388.990479 287.28559 
z
" style="fill:#4dc790;"/>
   </g>
   <g id="patch_50">
    <path clip-path="url(#p2552ad9a20)" d="M 394.828769 339.48 
L 398.161 339.48 
L 398.161 277.005892 
L 394.828769 277.005892 
z
" style="fill:#4dc790;"/>
   </g>
   <g id="patch_51">
    <path clip-path="url(#p2552ad9a20)" d="M 401.640107 339.48 
L 404.972338 339.48 
L 404.972338 274.68972 
L 401.640107 274.68972 
z
" style="fill:#4dc790;"/>
   </g>
   <g id="patch_52">
    <path clip-path="url(#p2552ad9a20)" d="M 408.451445 339.48 
L 411.783676 339.48 
L 411.783676 272.682571 
L 408.451445 272.682571 
z
" style="fill:#fd6b6c;"/>
   </g>
   <g id="patch_53">
    <path clip-path="url(#p2552ad9a20)" d="M 415.262783 339.48 
L 418.595014 339.48 
L 418.595014 287.115752 
L 415.262783 287.115752 
z
" style="fill:#fd6b6c;"/>
   </g>
   <g id="patch_54">
    <path clip-path="url(#p2552ad9a20)" d="M 422.074121 339.48 
L 425.406352 339.48 
L 425.406352 292.402324 
L 422.074121 292.402324 
z
" style="fill:#4dc790;"/>
   </g>
   <g id="patch_55">
    <path clip-path="url(#p2552ad9a20)" d="M 428.885459 339.48 
L 432.21769 339.48 
L 432.21769 279.474567 
L 428.885459 279.474567 
z
" style="fill:#4dc790;"/>
   </g>
   <g id="patch_56">
    <path clip-path="url(#p2552ad9a20)" d="M 435.696797 339.48 
L 439.029028 339.48 
L 439.029028 277.998538 
L 435.696797 277.998538 
z
" style="fill:#4dc790;"/>
   </g>
   <g id="patch_57">
    <path clip-path="url(#p2552ad9a20)" d="M 442.508135 339.48 
L 445.840366 339.48 
L 445.840366 265.67275 
L 442.508135 265.67275 
z
" style="fill:#4dc790;"/>
   </g>
   <g id="patch_58">
    <path clip-path="url(#p2552ad9a20)" d="M 449.319473 339.48 
L 452.651704 339.48 
L 452.651704 264.207273 
L 449.319473 264.207273 
z
" style="fill:#4dc790;"/>
   </g>
   <g id="patch_59">
    <path clip-path="url(#p2552ad9a20)" d="M 456.130811 339.48 
L 459.463042 339.48 
L 459.463042 310.93246 
L 456.130811 310.93246 
z
" style="fill:#4dc790;"/>
   </g>
   <g id="patch_60">
    <path clip-path="url(#p2552ad9a20)" d="M 462.942149 339.48 
L 466.27438 339.48 
L 466.27438 339.48 
L 462.942149 339.48 
z
" style="fill:#fd6b6c;"/>
   </g>
   <g id="patch_61">
    <path d="M 86.4 339.48 
L 86.4 256.68 
" style="fill:none;stroke:#f0f0f0;stroke-linecap:square;stroke-linejoin:miter;"/>
   </g>
   <g id="patch_62">
    <path d="M 489.6 339.48 
L 489.6 256.68 
" style="fill:none;stroke:#f0f0f0;stroke-linecap:square;stroke-linejoin:miter;"/>
   </g>
   <g id="patch_63">
    <path d="M 86.4 339.48 
L 489.6 339.48 
" style="fill:none;stroke:#f0f0f0;stroke-linecap:square;stroke-linejoin:miter;"/>
   </g>
   <g id="patch_64">
    <path d="M 86.4 256.68 
L 489.6 256.68 
" style="fill:none;stroke:#f0f0f0;stroke-linecap:square;stroke-linejoin:miter;stroke-width:0.25;"/>
   </g>
  </g>
  <g id="axes_3">
   <g id="patch_65">
    <path d="M 86.4 339.48 
L 86.4 256.68 
" style="fill:none;stroke:#f0f0f0;stroke-linecap:square;stroke-linejoin:miter;"/>
   </g>
   <g id="patch_66">
    <path d="M 489.6 339.48 
L 489.6 256.68 
" style="fill:none;stroke:#f0f0f0;stroke-linecap:square;stroke-linejoin:miter;"/>
   </g>
   <g id="patch_67">
    <path d="M 86.4 339.48 
L 489.6 339.48 
" style="fill:none;stroke:#f0f0f0;stroke-linecap:square;stroke-linejoin:miter;"/>
   </g>
   <g id="patch_68">
    <path d="M 86.4 256.68 
L 489.6 256.68 
" style="fill:none;stroke:#f0f0f0;stroke-linecap:square;stroke-linejoin:miter;"/>
   </g>
  </g>
  <g id="axes_4">
   <g id="patch_69">
    <path d="M 86.4 256.68 
L 86.4 49.68 
" style="fill:none;stroke:#f0f0f0;stroke-linecap:square;stroke-linejoin:miter;"/>
   </g>
   <g id="patch_70">
    <path d="M 489.6 256.68 
L 489.6 49.68 
" style="fill:none;stroke:#f0f0f0;stroke-linecap:square;stroke-linejoin:miter;"/>
   </g>
   <g id="patch_71">
    <path d="M 86.4 256.68 
L 489.6 256.68 
" style="fill:none;stroke:#f0f0f0;stroke-linecap:square;stroke-linejoin:miter;"/>
   </g>
   <g id="patch_72">
    <path d="M 86.4 49.68 
L 489.6 49.68 
" style="fill:none;stroke:#f0f0f0;stroke-linecap:square;stroke-linejoin:miter;"/>
   </g>
  </g>
  <g id="text_21">
   <!-- Ibovespa, 2019 -->
   <g transform="translate(226.0665 19.22175)scale(0.144 -0.144)">
    <defs>
     <path d="M 9.1875 72.90625 
L 27.984375 72.90625 
L 27.984375 0 
L 9.1875 0 
z
" id="DejaVuSans-Bold-73"/>
     <path d="M 37.5 11.28125 
Q 43.109375 11.28125 46.0625 15.375 
Q 49.03125 19.484375 49.03125 27.296875 
Q 49.03125 35.109375 46.0625 39.203125 
Q 43.109375 43.3125 37.5 43.3125 
Q 31.890625 43.3125 28.875 39.1875 
Q 25.875 35.0625 25.875 27.296875 
Q 25.875 19.53125 28.875 15.40625 
Q 31.890625 11.28125 37.5 11.28125 
z
M 25.875 46.6875 
Q 29.5 51.46875 33.890625 53.734375 
Q 38.28125 56 44 56 
Q 54.109375 56 60.59375 47.96875 
Q 67.09375 39.9375 67.09375 27.296875 
Q 67.09375 14.65625 60.59375 6.609375 
Q 54.109375 -1.421875 44 -1.421875 
Q 38.28125 -1.421875 33.890625 0.84375 
Q 29.5 3.125 25.875 7.90625 
L 25.875 0 
L 8.40625 0 
L 8.40625 75.984375 
L 25.875 75.984375 
z
" id="DejaVuSans-Bold-98"/>
     <path d="M 34.421875 43.5 
Q 28.609375 43.5 25.5625 39.328125 
Q 22.515625 35.15625 22.515625 27.296875 
Q 22.515625 19.4375 25.5625 15.25 
Q 28.609375 11.078125 34.421875 11.078125 
Q 40.140625 11.078125 43.15625 15.25 
Q 46.1875 19.4375 46.1875 27.296875 
Q 46.1875 35.15625 43.15625 39.328125 
Q 40.140625 43.5 34.421875 43.5 
z
M 34.421875 56 
Q 48.53125 56 56.46875 48.375 
Q 64.40625 40.765625 64.40625 27.296875 
Q 64.40625 13.8125 56.46875 6.1875 
Q 48.53125 -1.421875 34.421875 -1.421875 
Q 20.265625 -1.421875 12.28125 6.1875 
Q 4.296875 13.8125 4.296875 27.296875 
Q 4.296875 40.765625 12.28125 48.375 
Q 20.265625 56 34.421875 56 
z
" id="DejaVuSans-Bold-111"/>
     <path d="M 1.515625 54.6875 
L 19 54.6875 
L 32.625 16.890625 
L 46.1875 54.6875 
L 63.71875 54.6875 
L 42.1875 0 
L 23 0 
z
" id="DejaVuSans-Bold-118"/>
     <path d="M 62.984375 27.484375 
L 62.984375 22.515625 
L 22.125 22.515625 
Q 22.75 16.359375 26.5625 13.28125 
Q 30.375 10.203125 37.203125 10.203125 
Q 42.71875 10.203125 48.5 11.84375 
Q 54.296875 13.484375 60.40625 16.796875 
L 60.40625 3.328125 
Q 54.203125 0.984375 48 -0.21875 
Q 41.796875 -1.421875 35.59375 -1.421875 
Q 20.75 -1.421875 12.515625 6.125 
Q 4.296875 13.671875 4.296875 27.296875 
Q 4.296875 40.671875 12.375 48.328125 
Q 20.453125 56 34.625 56 
Q 47.515625 56 55.25 48.234375 
Q 62.984375 40.484375 62.984375 27.484375 
z
M 45.015625 33.296875 
Q 45.015625 38.28125 42.109375 41.328125 
Q 39.203125 44.390625 34.515625 44.390625 
Q 29.4375 44.390625 26.265625 41.53125 
Q 23.09375 38.671875 22.3125 33.296875 
z
" id="DejaVuSans-Bold-101"/>
     <path d="M 51.125 52.984375 
L 51.125 39.703125 
Q 45.515625 42.046875 40.28125 43.21875 
Q 35.0625 44.390625 30.421875 44.390625 
Q 25.4375 44.390625 23.015625 43.140625 
Q 20.609375 41.890625 20.609375 39.3125 
Q 20.609375 37.203125 22.4375 36.078125 
Q 24.265625 34.96875 29 34.421875 
L 32.078125 33.984375 
Q 45.515625 32.28125 50.140625 28.375 
Q 54.78125 24.46875 54.78125 16.109375 
Q 54.78125 7.375 48.328125 2.96875 
Q 41.890625 -1.421875 29.109375 -1.421875 
Q 23.6875 -1.421875 17.890625 -0.5625 
Q 12.109375 0.296875 6 2 
L 6 15.28125 
Q 11.234375 12.75 16.71875 11.46875 
Q 22.21875 10.203125 27.875 10.203125 
Q 33.015625 10.203125 35.59375 11.609375 
Q 38.1875 13.03125 38.1875 15.828125 
Q 38.1875 18.171875 36.40625 19.3125 
Q 34.625 20.453125 29.296875 21.09375 
L 26.21875 21.484375 
Q 14.546875 22.953125 9.859375 26.90625 
Q 5.171875 30.859375 5.171875 38.921875 
Q 5.171875 47.609375 11.125 51.796875 
Q 17.09375 56 29.390625 56 
Q 34.234375 56 39.546875 55.265625 
Q 44.875 54.546875 51.125 52.984375 
z
" id="DejaVuSans-Bold-115"/>
     <path d="M 25.875 7.90625 
L 25.875 -20.796875 
L 8.40625 -20.796875 
L 8.40625 54.6875 
L 25.875 54.6875 
L 25.875 46.6875 
Q 29.5 51.46875 33.890625 53.734375 
Q 38.28125 56 44 56 
Q 54.109375 56 60.59375 47.96875 
Q 67.09375 39.9375 67.09375 27.296875 
Q 67.09375 14.65625 60.59375 6.609375 
Q 54.109375 -1.421875 44 -1.421875 
Q 38.28125 -1.421875 33.890625 0.84375 
Q 29.5 3.125 25.875 7.90625 
z
M 37.5 43.3125 
Q 31.890625 43.3125 28.875 39.1875 
Q 25.875 35.0625 25.875 27.296875 
Q 25.875 19.53125 28.875 15.40625 
Q 31.890625 11.28125 37.5 11.28125 
Q 43.109375 11.28125 46.0625 15.375 
Q 49.03125 19.484375 49.03125 27.296875 
Q 49.03125 35.109375 46.0625 39.203125 
Q 43.109375 43.3125 37.5 43.3125 
z
" id="DejaVuSans-Bold-112"/>
     <path d="M 32.90625 24.609375 
Q 27.4375 24.609375 24.671875 22.75 
Q 21.921875 20.90625 21.921875 17.28125 
Q 21.921875 13.96875 24.140625 12.078125 
Q 26.375 10.203125 30.328125 10.203125 
Q 35.25 10.203125 38.625 13.734375 
Q 42 17.28125 42 22.609375 
L 42 24.609375 
z
M 59.625 31.203125 
L 59.625 0 
L 42 0 
L 42 8.109375 
Q 38.484375 3.125 34.078125 0.84375 
Q 29.6875 -1.421875 23.390625 -1.421875 
Q 14.890625 -1.421875 9.59375 3.53125 
Q 4.296875 8.5 4.296875 16.40625 
Q 4.296875 26.03125 10.90625 30.515625 
Q 17.53125 35.015625 31.6875 35.015625 
L 42 35.015625 
L 42 36.375 
Q 42 40.53125 38.71875 42.453125 
Q 35.453125 44.390625 28.515625 44.390625 
Q 22.90625 44.390625 18.0625 43.265625 
Q 13.234375 42.140625 9.078125 39.890625 
L 9.078125 53.21875 
Q 14.703125 54.59375 20.359375 55.296875 
Q 26.03125 56 31.6875 56 
Q 46.484375 56 53.046875 50.171875 
Q 59.625 44.34375 59.625 31.203125 
z
" id="DejaVuSans-Bold-97"/>
     <path d="M 10.203125 18.890625 
L 27.78125 18.890625 
L 27.78125 4 
L 15.71875 -14.203125 
L 5.328125 -14.203125 
L 10.203125 4 
z
" id="DejaVuSans-Bold-44"/>
     <path id="DejaVuSans-Bold-32"/>
     <path d="M 28.8125 13.8125 
L 60.890625 13.8125 
L 60.890625 0 
L 7.90625 0 
L 7.90625 13.8125 
L 34.515625 37.3125 
Q 38.09375 40.53125 39.796875 43.609375 
Q 41.5 46.6875 41.5 50 
Q 41.5 55.125 38.0625 58.25 
Q 34.625 61.375 28.90625 61.375 
Q 24.515625 61.375 19.28125 59.5 
Q 14.0625 57.625 8.109375 53.90625 
L 8.109375 69.921875 
Q 14.453125 72.015625 20.65625 73.109375 
Q 26.859375 74.21875 32.8125 74.21875 
Q 45.90625 74.21875 53.15625 68.453125 
Q 60.40625 62.703125 60.40625 52.390625 
Q 60.40625 46.4375 57.328125 41.28125 
Q 54.25 36.140625 44.390625 27.484375 
z
" id="DejaVuSans-Bold-50"/>
     <path d="M 46 36.53125 
Q 46 50.203125 43.4375 55.78125 
Q 40.875 61.375 34.8125 61.375 
Q 28.765625 61.375 26.171875 55.78125 
Q 23.578125 50.203125 23.578125 36.53125 
Q 23.578125 22.703125 26.171875 17.03125 
Q 28.765625 11.375 34.8125 11.375 
Q 40.828125 11.375 43.40625 17.03125 
Q 46 22.703125 46 36.53125 
z
M 64.796875 36.375 
Q 64.796875 18.265625 56.984375 8.421875 
Q 49.171875 -1.421875 34.8125 -1.421875 
Q 20.40625 -1.421875 12.59375 8.421875 
Q 4.78125 18.265625 4.78125 36.375 
Q 4.78125 54.546875 12.59375 64.375 
Q 20.40625 74.21875 34.8125 74.21875 
Q 49.171875 74.21875 56.984375 64.375 
Q 64.796875 54.546875 64.796875 36.375 
z
" id="DejaVuSans-Bold-48"/>
     <path d="M 11.71875 12.984375 
L 28.328125 12.984375 
L 28.328125 60.109375 
L 11.28125 56.59375 
L 11.28125 69.390625 
L 28.21875 72.90625 
L 46.09375 72.90625 
L 46.09375 12.984375 
L 62.703125 12.984375 
L 62.703125 0 
L 11.71875 0 
z
" id="DejaVuSans-Bold-49"/>
     <path d="M 10.015625 1.609375 
L 10.015625 15.09375 
Q 14.5 12.984375 18.59375 11.9375 
Q 22.703125 10.890625 26.703125 10.890625 
Q 35.109375 10.890625 39.796875 15.546875 
Q 44.484375 20.21875 45.3125 29.390625 
Q 42 26.953125 38.234375 25.734375 
Q 34.46875 24.515625 30.078125 24.515625 
Q 18.890625 24.515625 12.03125 31.03125 
Q 5.171875 37.546875 5.171875 48.1875 
Q 5.171875 59.96875 12.8125 67.046875 
Q 20.453125 74.125 33.296875 74.125 
Q 47.5625 74.125 55.375 64.5 
Q 63.1875 54.890625 63.1875 37.3125 
Q 63.1875 19.234375 54.046875 8.90625 
Q 44.921875 -1.421875 29 -1.421875 
Q 23.875 -1.421875 19.1875 -0.65625 
Q 14.5 0.09375 10.015625 1.609375 
z
M 33.203125 36.71875 
Q 38.140625 36.71875 40.625 39.90625 
Q 43.109375 43.109375 43.109375 49.515625 
Q 43.109375 55.859375 40.625 59.078125 
Q 38.140625 62.3125 33.203125 62.3125 
Q 28.265625 62.3125 25.78125 59.078125 
Q 23.296875 55.859375 23.296875 49.515625 
Q 23.296875 43.109375 25.78125 39.90625 
Q 28.265625 36.71875 33.203125 36.71875 
z
" id="DejaVuSans-Bold-57"/>
    </defs>
    <use xlink:href="#DejaVuSans-Bold-73"/>
    <use x="37.207031" xlink:href="#DejaVuSans-Bold-98"/>
    <use x="108.789062" xlink:href="#DejaVuSans-Bold-111"/>
    <use x="177.490234" xlink:href="#DejaVuSans-Bold-118"/>
    <use x="242.675781" xlink:href="#DejaVuSans-Bold-101"/>
    <use x="310.498047" xlink:href="#DejaVuSans-Bold-115"/>
    <use x="370.019531" xlink:href="#DejaVuSans-Bold-112"/>
    <use x="441.601562" xlink:href="#DejaVuSans-Bold-97"/>
    <use x="509.082031" xlink:href="#DejaVuSans-Bold-44"/>
    <use x="547.070312" xlink:href="#DejaVuSans-Bold-32"/>
    <use x="581.884766" xlink:href="#DejaVuSans-Bold-50"/>
    <use x="651.464844" xlink:href="#DejaVuSans-Bold-48"/>
    <use x="721.044922" xlink:href="#DejaVuSans-Bold-49"/>
    <use x="790.625" xlink:href="#DejaVuSans-Bold-57"/>
   </g>
  </g>
 </g>
 <defs>
  <clipPath id="pfbf35be5c5">
   <rect height="207" width="403.2" x="86.4" y="49.68"/>
  </clipPath>
  <clipPath id="p2552ad9a20">
   <rect height="82.8" width="403.2" x="86.4" y="256.68"/>
  </clipPath>
 </defs>
</svg>
