<?xml version="1.0" encoding="utf-8" standalone="no"?>
<!DOCTYPE svg PUBLIC "-//W3C//DTD SVG 1.1//EN"
  "http://www.w3.org/Graphics/SVG/1.1/DTD/svg11.dtd">
<!-- Created with matplotlib (https://matplotlib.org/) -->
<svg height="345.6pt" version="1.1" viewBox="0 0 460.8 345.6" width="460.8pt" xmlns="http://www.w3.org/2000/svg" xmlns:xlink="http://www.w3.org/1999/xlink">
 <metadata>
  <rdf:RDF xmlns:cc="http://creativecommons.org/ns#" xmlns:dc="http://purl.org/dc/elements/1.1/" xmlns:rdf="http://www.w3.org/1999/02/22-rdf-syntax-ns#">
   <cc:Work>
    <dc:type rdf:resource="http://purl.org/dc/dcmitype/StillImage"/>
    <dc:date>2020-10-16T19:17:34.735909</dc:date>
    <dc:format>image/svg+xml</dc:format>
    <dc:creator>
     <cc:Agent>
      <dc:title>Matplotlib v3.3.1, https://matplotlib.org/</dc:title>
     </cc:Agent>
    </dc:creator>
   </cc:Work>
  </rdf:RDF>
 </metadata>
 <defs>
  <style type="text/css">*{stroke-linecap:butt;stroke-linejoin:round;}</style>
 </defs>
 <g id="figure_1">
  <g id="patch_1">
   <path d="M 0 345.6 
L 460.8 345.6 
L 460.8 0 
L 0 0 
z
" style="fill:#ffffff;"/>
  </g>
  <g id="axes_1">
   <g id="patch_2">
    <path d="M 69.12 307.584 
L 414.72 307.584 
L 414.72 41.472 
L 69.12 41.472 
z
" style="fill:#e5e5e5;"/>
   </g>
   <g id="matplotlib.axis_1">
    <g id="xtick_1">
     <g id="line2d_1">
      <path clip-path="url(#pbc6cabc6f3)" d="M 128.541344 307.584 
L 128.541344 41.472 
" style="fill:none;stroke:#ffffff;stroke-linecap:square;stroke-width:0.8;"/>
     </g>
     <g id="line2d_2">
      <defs>
       <path d="M 0 0 
L 0 3.5 
" id="m71f12889b5" style="stroke:#555555;stroke-width:0.8;"/>
      </defs>
      <g>
       <use style="fill:#555555;stroke:#555555;stroke-width:0.8;" x="128.541344" xlink:href="#m71f12889b5" y="307.584"/>
      </g>
     </g>
     <g id="text_1">
      <!-- −20 -->
      <g style="fill:#555555;" transform="translate(117.989 322.182437)scale(0.1 -0.1)">
       <defs>
        <path d="M 10.59375 35.5 
L 73.1875 35.5 
L 73.1875 27.203125 
L 10.59375 27.203125 
z
" id="DejaVuSans-8722"/>
        <path d="M 19.1875 8.296875 
L 53.609375 8.296875 
L 53.609375 0 
L 7.328125 0 
L 7.328125 8.296875 
Q 12.9375 14.109375 22.625 23.890625 
Q 32.328125 33.6875 34.8125 36.53125 
Q 39.546875 41.84375 41.421875 45.53125 
Q 43.3125 49.21875 43.3125 52.78125 
Q 43.3125 58.59375 39.234375 62.25 
Q 35.15625 65.921875 28.609375 65.921875 
Q 23.96875 65.921875 18.8125 64.3125 
Q 13.671875 62.703125 7.8125 59.421875 
L 7.8125 69.390625 
Q 13.765625 71.78125 18.9375 73 
Q 24.125 74.21875 28.421875 74.21875 
Q 39.75 74.21875 46.484375 68.546875 
Q 53.21875 62.890625 53.21875 53.421875 
Q 53.21875 48.921875 51.53125 44.890625 
Q 49.859375 40.875 45.40625 35.40625 
Q 44.1875 33.984375 37.640625 27.21875 
Q 31.109375 20.453125 19.1875 8.296875 
z
" id="DejaVuSans-50"/>
        <path d="M 31.78125 66.40625 
Q 24.171875 66.40625 20.328125 58.90625 
Q 16.5 51.421875 16.5 36.375 
Q 16.5 21.390625 20.328125 13.890625 
Q 24.171875 6.390625 31.78125 6.390625 
Q 39.453125 6.390625 43.28125 13.890625 
Q 47.125 21.390625 47.125 36.375 
Q 47.125 51.421875 43.28125 58.90625 
Q 39.453125 66.40625 31.78125 66.40625 
z
M 31.78125 74.21875 
Q 44.046875 74.21875 50.515625 64.515625 
Q 56.984375 54.828125 56.984375 36.375 
Q 56.984375 17.96875 50.515625 8.265625 
Q 44.046875 -1.421875 31.78125 -1.421875 
Q 19.53125 -1.421875 13.0625 8.265625 
Q 6.59375 17.96875 6.59375 36.375 
Q 6.59375 54.828125 13.0625 64.515625 
Q 19.53125 74.21875 31.78125 74.21875 
z
" id="DejaVuSans-48"/>
       </defs>
       <use xlink:href="#DejaVuSans-8722"/>
       <use x="83.789062" xlink:href="#DejaVuSans-50"/>
       <use x="147.412109" xlink:href="#DejaVuSans-48"/>
      </g>
     </g>
    </g>
    <g id="xtick_2">
     <g id="line2d_3">
      <path clip-path="url(#pbc6cabc6f3)" d="M 202.305771 307.584 
L 202.305771 41.472 
" style="fill:none;stroke:#ffffff;stroke-linecap:square;stroke-width:0.8;"/>
     </g>
     <g id="line2d_4">
      <g>
       <use style="fill:#555555;stroke:#555555;stroke-width:0.8;" x="202.305771" xlink:href="#m71f12889b5" y="307.584"/>
      </g>
     </g>
     <g id="text_2">
      <!-- −10 -->
      <g style="fill:#555555;" transform="translate(191.753427 322.182437)scale(0.1 -0.1)">
       <defs>
        <path d="M 12.40625 8.296875 
L 28.515625 8.296875 
L 28.515625 63.921875 
L 10.984375 60.40625 
L 10.984375 69.390625 
L 28.421875 72.90625 
L 38.28125 72.90625 
L 38.28125 8.296875 
L 54.390625 8.296875 
L 54.390625 0 
L 12.40625 0 
z
" id="DejaVuSans-49"/>
       </defs>
       <use xlink:href="#DejaVuSans-8722"/>
       <use x="83.789062" xlink:href="#DejaVuSans-49"/>
       <use x="147.412109" xlink:href="#DejaVuSans-48"/>
      </g>
     </g>
    </g>
    <g id="xtick_3">
     <g id="line2d_5">
      <path clip-path="url(#pbc6cabc6f3)" d="M 276.070198 307.584 
L 276.070198 41.472 
" style="fill:none;stroke:#ffffff;stroke-linecap:square;stroke-width:0.8;"/>
     </g>
     <g id="line2d_6">
      <g>
       <use style="fill:#555555;stroke:#555555;stroke-width:0.8;" x="276.070198" xlink:href="#m71f12889b5" y="307.584"/>
      </g>
     </g>
     <g id="text_3">
      <!-- 0 -->
      <g style="fill:#555555;" transform="translate(272.888948 322.182437)scale(0.1 -0.1)">
       <use xlink:href="#DejaVuSans-48"/>
      </g>
     </g>
    </g>
    <g id="xtick_4">
     <g id="line2d_7">
      <path clip-path="url(#pbc6cabc6f3)" d="M 349.834625 307.584 
L 349.834625 41.472 
" style="fill:none;stroke:#ffffff;stroke-linecap:square;stroke-width:0.8;"/>
     </g>
     <g id="line2d_8">
      <g>
       <use style="fill:#555555;stroke:#555555;stroke-width:0.8;" x="349.834625" xlink:href="#m71f12889b5" y="307.584"/>
      </g>
     </g>
     <g id="text_4">
      <!-- 10 -->
      <g style="fill:#555555;" transform="translate(343.472125 322.182437)scale(0.1 -0.1)">
       <use xlink:href="#DejaVuSans-49"/>
       <use x="63.623047" xlink:href="#DejaVuSans-48"/>
      </g>
     </g>
    </g>
   </g>
   <g id="matplotlib.axis_2">
    <g id="ytick_1">
     <g id="line2d_9">
      <path clip-path="url(#pbc6cabc6f3)" d="M 69.12 307.584 
L 414.72 307.584 
" style="fill:none;stroke:#ffffff;stroke-linecap:square;stroke-width:0.8;"/>
     </g>
     <g id="line2d_10">
      <defs>
       <path d="M 0 0 
L -3.5 0 
" id="medec2ef25e" style="stroke:#555555;stroke-width:0.8;"/>
      </defs>
      <g>
       <use style="fill:#555555;stroke:#555555;stroke-width:0.8;" x="69.12" xlink:href="#medec2ef25e" y="307.584"/>
      </g>
     </g>
     <g id="text_5">
      <!-- 0 -->
      <g style="fill:#555555;" transform="translate(55.7575 311.383219)scale(0.1 -0.1)">
       <use xlink:href="#DejaVuSans-48"/>
      </g>
     </g>
    </g>
    <g id="ytick_2">
     <g id="line2d_11">
      <path clip-path="url(#pbc6cabc6f3)" d="M 69.12 272.713334 
L 414.72 272.713334 
" style="fill:none;stroke:#ffffff;stroke-linecap:square;stroke-width:0.8;"/>
     </g>
     <g id="line2d_12">
      <g>
       <use style="fill:#555555;stroke:#555555;stroke-width:0.8;" x="69.12" xlink:href="#medec2ef25e" y="272.713334"/>
      </g>
     </g>
     <g id="text_6">
      <!-- 250 -->
      <g style="fill:#555555;" transform="translate(43.0325 276.512553)scale(0.1 -0.1)">
       <defs>
        <path d="M 10.796875 72.90625 
L 49.515625 72.90625 
L 49.515625 64.59375 
L 19.828125 64.59375 
L 19.828125 46.734375 
Q 21.96875 47.46875 24.109375 47.828125 
Q 26.265625 48.1875 28.421875 48.1875 
Q 40.625 48.1875 47.75 41.5 
Q 54.890625 34.8125 54.890625 23.390625 
Q 54.890625 11.625 47.5625 5.09375 
Q 40.234375 -1.421875 26.90625 -1.421875 
Q 22.3125 -1.421875 17.546875 -0.640625 
Q 12.796875 0.140625 7.71875 1.703125 
L 7.71875 11.625 
Q 12.109375 9.234375 16.796875 8.0625 
Q 21.484375 6.890625 26.703125 6.890625 
Q 35.15625 6.890625 40.078125 11.328125 
Q 45.015625 15.765625 45.015625 23.390625 
Q 45.015625 31 40.078125 35.4375 
Q 35.15625 39.890625 26.703125 39.890625 
Q 22.75 39.890625 18.8125 39.015625 
Q 14.890625 38.140625 10.796875 36.28125 
z
" id="DejaVuSans-53"/>
       </defs>
       <use xlink:href="#DejaVuSans-50"/>
       <use x="63.623047" xlink:href="#DejaVuSans-53"/>
       <use x="127.246094" xlink:href="#DejaVuSans-48"/>
      </g>
     </g>
    </g>
    <g id="ytick_3">
     <g id="line2d_13">
      <path clip-path="url(#pbc6cabc6f3)" d="M 69.12 237.842668 
L 414.72 237.842668 
" style="fill:none;stroke:#ffffff;stroke-linecap:square;stroke-width:0.8;"/>
     </g>
     <g id="line2d_14">
      <g>
       <use style="fill:#555555;stroke:#555555;stroke-width:0.8;" x="69.12" xlink:href="#medec2ef25e" y="237.842668"/>
      </g>
     </g>
     <g id="text_7">
      <!-- 500 -->
      <g style="fill:#555555;" transform="translate(43.0325 241.641887)scale(0.1 -0.1)">
       <use xlink:href="#DejaVuSans-53"/>
       <use x="63.623047" xlink:href="#DejaVuSans-48"/>
       <use x="127.246094" xlink:href="#DejaVuSans-48"/>
      </g>
     </g>
    </g>
    <g id="ytick_4">
     <g id="line2d_15">
      <path clip-path="url(#pbc6cabc6f3)" d="M 69.12 202.972002 
L 414.72 202.972002 
" style="fill:none;stroke:#ffffff;stroke-linecap:square;stroke-width:0.8;"/>
     </g>
     <g id="line2d_16">
      <g>
       <use style="fill:#555555;stroke:#555555;stroke-width:0.8;" x="69.12" xlink:href="#medec2ef25e" y="202.972002"/>
      </g>
     </g>
     <g id="text_8">
      <!-- 750 -->
      <g style="fill:#555555;" transform="translate(43.0325 206.771221)scale(0.1 -0.1)">
       <defs>
        <path d="M 8.203125 72.90625 
L 55.078125 72.90625 
L 55.078125 68.703125 
L 28.609375 0 
L 18.3125 0 
L 43.21875 64.59375 
L 8.203125 64.59375 
z
" id="DejaVuSans-55"/>
       </defs>
       <use xlink:href="#DejaVuSans-55"/>
       <use x="63.623047" xlink:href="#DejaVuSans-53"/>
       <use x="127.246094" xlink:href="#DejaVuSans-48"/>
      </g>
     </g>
    </g>
    <g id="ytick_5">
     <g id="line2d_17">
      <path clip-path="url(#pbc6cabc6f3)" d="M 69.12 168.101336 
L 414.72 168.101336 
" style="fill:none;stroke:#ffffff;stroke-linecap:square;stroke-width:0.8;"/>
     </g>
     <g id="line2d_18">
      <g>
       <use style="fill:#555555;stroke:#555555;stroke-width:0.8;" x="69.12" xlink:href="#medec2ef25e" y="168.101336"/>
      </g>
     </g>
     <g id="text_9">
      <!-- 1000 -->
      <g style="fill:#555555;" transform="translate(36.67 171.900555)scale(0.1 -0.1)">
       <use xlink:href="#DejaVuSans-49"/>
       <use x="63.623047" xlink:href="#DejaVuSans-48"/>
       <use x="127.246094" xlink:href="#DejaVuSans-48"/>
       <use x="190.869141" xlink:href="#DejaVuSans-48"/>
      </g>
     </g>
    </g>
    <g id="ytick_6">
     <g id="line2d_19">
      <path clip-path="url(#pbc6cabc6f3)" d="M 69.12 133.23067 
L 414.72 133.23067 
" style="fill:none;stroke:#ffffff;stroke-linecap:square;stroke-width:0.8;"/>
     </g>
     <g id="line2d_20">
      <g>
       <use style="fill:#555555;stroke:#555555;stroke-width:0.8;" x="69.12" xlink:href="#medec2ef25e" y="133.23067"/>
      </g>
     </g>
     <g id="text_10">
      <!-- 1250 -->
      <g style="fill:#555555;" transform="translate(36.67 137.029889)scale(0.1 -0.1)">
       <use xlink:href="#DejaVuSans-49"/>
       <use x="63.623047" xlink:href="#DejaVuSans-50"/>
       <use x="127.246094" xlink:href="#DejaVuSans-53"/>
       <use x="190.869141" xlink:href="#DejaVuSans-48"/>
      </g>
     </g>
    </g>
    <g id="ytick_7">
     <g id="line2d_21">
      <path clip-path="url(#pbc6cabc6f3)" d="M 69.12 98.360004 
L 414.72 98.360004 
" style="fill:none;stroke:#ffffff;stroke-linecap:square;stroke-width:0.8;"/>
     </g>
     <g id="line2d_22">
      <g>
       <use style="fill:#555555;stroke:#555555;stroke-width:0.8;" x="69.12" xlink:href="#medec2ef25e" y="98.360004"/>
      </g>
     </g>
     <g id="text_11">
      <!-- 1500 -->
      <g style="fill:#555555;" transform="translate(36.67 102.159223)scale(0.1 -0.1)">
       <use xlink:href="#DejaVuSans-49"/>
       <use x="63.623047" xlink:href="#DejaVuSans-53"/>
       <use x="127.246094" xlink:href="#DejaVuSans-48"/>
       <use x="190.869141" xlink:href="#DejaVuSans-48"/>
      </g>
     </g>
    </g>
    <g id="ytick_8">
     <g id="line2d_23">
      <path clip-path="url(#pbc6cabc6f3)" d="M 69.12 63.489338 
L 414.72 63.489338 
" style="fill:none;stroke:#ffffff;stroke-linecap:square;stroke-width:0.8;"/>
     </g>
     <g id="line2d_24">
      <g>
       <use style="fill:#555555;stroke:#555555;stroke-width:0.8;" x="69.12" xlink:href="#medec2ef25e" y="63.489338"/>
      </g>
     </g>
     <g id="text_12">
      <!-- 1750 -->
      <g style="fill:#555555;" transform="translate(36.67 67.288557)scale(0.1 -0.1)">
       <use xlink:href="#DejaVuSans-49"/>
       <use x="63.623047" xlink:href="#DejaVuSans-55"/>
       <use x="127.246094" xlink:href="#DejaVuSans-53"/>
       <use x="190.869141" xlink:href="#DejaVuSans-48"/>
      </g>
     </g>
    </g>
    <g id="text_13">
     <!-- Frequency -->
     <g style="fill:#555555;" transform="translate(30.174375 205.523625)rotate(-90)scale(0.12 -0.12)">
      <defs>
       <path d="M 9.8125 72.90625 
L 51.703125 72.90625 
L 51.703125 64.59375 
L 19.671875 64.59375 
L 19.671875 43.109375 
L 48.578125 43.109375 
L 48.578125 34.8125 
L 19.671875 34.8125 
L 19.671875 0 
L 9.8125 0 
z
" id="DejaVuSans-70"/>
       <path d="M 41.109375 46.296875 
Q 39.59375 47.171875 37.8125 47.578125 
Q 36.03125 48 33.890625 48 
Q 26.265625 48 22.1875 43.046875 
Q 18.109375 38.09375 18.109375 28.8125 
L 18.109375 0 
L 9.078125 0 
L 9.078125 54.6875 
L 18.109375 54.6875 
L 18.109375 46.1875 
Q 20.953125 51.171875 25.484375 53.578125 
Q 30.03125 56 36.53125 56 
Q 37.453125 56 38.578125 55.875 
Q 39.703125 55.765625 41.0625 55.515625 
z
" id="DejaVuSans-114"/>
       <path d="M 56.203125 29.59375 
L 56.203125 25.203125 
L 14.890625 25.203125 
Q 15.484375 15.921875 20.484375 11.0625 
Q 25.484375 6.203125 34.421875 6.203125 
Q 39.59375 6.203125 44.453125 7.46875 
Q 49.3125 8.734375 54.109375 11.28125 
L 54.109375 2.78125 
Q 49.265625 0.734375 44.1875 -0.34375 
Q 39.109375 -1.421875 33.890625 -1.421875 
Q 20.796875 -1.421875 13.15625 6.1875 
Q 5.515625 13.8125 5.515625 26.8125 
Q 5.515625 40.234375 12.765625 48.109375 
Q 20.015625 56 32.328125 56 
Q 43.359375 56 49.78125 48.890625 
Q 56.203125 41.796875 56.203125 29.59375 
z
M 47.21875 32.234375 
Q 47.125 39.59375 43.09375 43.984375 
Q 39.0625 48.390625 32.421875 48.390625 
Q 24.90625 48.390625 20.390625 44.140625 
Q 15.875 39.890625 15.1875 32.171875 
z
" id="DejaVuSans-101"/>
       <path d="M 14.796875 27.296875 
Q 14.796875 17.390625 18.875 11.75 
Q 22.953125 6.109375 30.078125 6.109375 
Q 37.203125 6.109375 41.296875 11.75 
Q 45.40625 17.390625 45.40625 27.296875 
Q 45.40625 37.203125 41.296875 42.84375 
Q 37.203125 48.484375 30.078125 48.484375 
Q 22.953125 48.484375 18.875 42.84375 
Q 14.796875 37.203125 14.796875 27.296875 
z
M 45.40625 8.203125 
Q 42.578125 3.328125 38.25 0.953125 
Q 33.9375 -1.421875 27.875 -1.421875 
Q 17.96875 -1.421875 11.734375 6.484375 
Q 5.515625 14.40625 5.515625 27.296875 
Q 5.515625 40.1875 11.734375 48.09375 
Q 17.96875 56 27.875 56 
Q 33.9375 56 38.25 53.625 
Q 42.578125 51.265625 45.40625 46.390625 
L 45.40625 54.6875 
L 54.390625 54.6875 
L 54.390625 -20.796875 
L 45.40625 -20.796875 
z
" id="DejaVuSans-113"/>
       <path d="M 8.5 21.578125 
L 8.5 54.6875 
L 17.484375 54.6875 
L 17.484375 21.921875 
Q 17.484375 14.15625 20.5 10.265625 
Q 23.53125 6.390625 29.59375 6.390625 
Q 36.859375 6.390625 41.078125 11.03125 
Q 45.3125 15.671875 45.3125 23.6875 
L 45.3125 54.6875 
L 54.296875 54.6875 
L 54.296875 0 
L 45.3125 0 
L 45.3125 8.40625 
Q 42.046875 3.421875 37.71875 1 
Q 33.40625 -1.421875 27.6875 -1.421875 
Q 18.265625 -1.421875 13.375 4.4375 
Q 8.5 10.296875 8.5 21.578125 
z
M 31.109375 56 
z
" id="DejaVuSans-117"/>
       <path d="M 54.890625 33.015625 
L 54.890625 0 
L 45.90625 0 
L 45.90625 32.71875 
Q 45.90625 40.484375 42.875 44.328125 
Q 39.84375 48.1875 33.796875 48.1875 
Q 26.515625 48.1875 22.3125 43.546875 
Q 18.109375 38.921875 18.109375 30.90625 
L 18.109375 0 
L 9.078125 0 
L 9.078125 54.6875 
L 18.109375 54.6875 
L 18.109375 46.1875 
Q 21.34375 51.125 25.703125 53.5625 
Q 30.078125 56 35.796875 56 
Q 45.21875 56 50.046875 50.171875 
Q 54.890625 44.34375 54.890625 33.015625 
z
" id="DejaVuSans-110"/>
       <path d="M 48.78125 52.59375 
L 48.78125 44.1875 
Q 44.96875 46.296875 41.140625 47.34375 
Q 37.3125 48.390625 33.40625 48.390625 
Q 24.65625 48.390625 19.8125 42.84375 
Q 14.984375 37.3125 14.984375 27.296875 
Q 14.984375 17.28125 19.8125 11.734375 
Q 24.65625 6.203125 33.40625 6.203125 
Q 37.3125 6.203125 41.140625 7.25 
Q 44.96875 8.296875 48.78125 10.40625 
L 48.78125 2.09375 
Q 45.015625 0.34375 40.984375 -0.53125 
Q 36.96875 -1.421875 32.421875 -1.421875 
Q 20.0625 -1.421875 12.78125 6.34375 
Q 5.515625 14.109375 5.515625 27.296875 
Q 5.515625 40.671875 12.859375 48.328125 
Q 20.21875 56 33.015625 56 
Q 37.15625 56 41.109375 55.140625 
Q 45.0625 54.296875 48.78125 52.59375 
z
" id="DejaVuSans-99"/>
       <path d="M 32.171875 -5.078125 
Q 28.375 -14.84375 24.75 -17.8125 
Q 21.140625 -20.796875 15.09375 -20.796875 
L 7.90625 -20.796875 
L 7.90625 -13.28125 
L 13.1875 -13.28125 
Q 16.890625 -13.28125 18.9375 -11.515625 
Q 21 -9.765625 23.484375 -3.21875 
L 25.09375 0.875 
L 2.984375 54.6875 
L 12.5 54.6875 
L 29.59375 11.921875 
L 46.6875 54.6875 
L 56.203125 54.6875 
z
" id="DejaVuSans-121"/>
      </defs>
      <use xlink:href="#DejaVuSans-70"/>
      <use x="50.269531" xlink:href="#DejaVuSans-114"/>
      <use x="89.132812" xlink:href="#DejaVuSans-101"/>
      <use x="150.65625" xlink:href="#DejaVuSans-113"/>
      <use x="214.132812" xlink:href="#DejaVuSans-117"/>
      <use x="277.511719" xlink:href="#DejaVuSans-101"/>
      <use x="339.035156" xlink:href="#DejaVuSans-110"/>
      <use x="402.414062" xlink:href="#DejaVuSans-99"/>
      <use x="457.394531" xlink:href="#DejaVuSans-121"/>
     </g>
    </g>
   </g>
   <g id="patch_3">
    <path clip-path="url(#pbc6cabc6f3)" d="M 84.829091 307.584 
L 87.970909 307.584 
L 87.970909 307.444517 
L 84.829091 307.444517 
z
" style="fill:#e24a33;"/>
   </g>
   <g id="patch_4">
    <path clip-path="url(#pbc6cabc6f3)" d="M 87.970909 307.584 
L 91.112727 307.584 
L 91.112727 307.584 
L 87.970909 307.584 
z
" style="fill:#e24a33;"/>
   </g>
   <g id="patch_5">
    <path clip-path="url(#pbc6cabc6f3)" d="M 91.112727 307.584 
L 94.254545 307.584 
L 94.254545 307.584 
L 91.112727 307.584 
z
" style="fill:#e24a33;"/>
   </g>
   <g id="patch_6">
    <path clip-path="url(#pbc6cabc6f3)" d="M 94.254545 307.584 
L 97.396364 307.584 
L 97.396364 307.584 
L 94.254545 307.584 
z
" style="fill:#e24a33;"/>
   </g>
   <g id="patch_7">
    <path clip-path="url(#pbc6cabc6f3)" d="M 97.396364 307.584 
L 100.538182 307.584 
L 100.538182 307.584 
L 97.396364 307.584 
z
" style="fill:#e24a33;"/>
   </g>
   <g id="patch_8">
    <path clip-path="url(#pbc6cabc6f3)" d="M 100.538182 307.584 
L 103.68 307.584 
L 103.68 307.584 
L 100.538182 307.584 
z
" style="fill:#e24a33;"/>
   </g>
   <g id="patch_9">
    <path clip-path="url(#pbc6cabc6f3)" d="M 103.68 307.584 
L 106.821818 307.584 
L 106.821818 307.584 
L 103.68 307.584 
z
" style="fill:#e24a33;"/>
   </g>
   <g id="patch_10">
    <path clip-path="url(#pbc6cabc6f3)" d="M 106.821818 307.584 
L 109.963636 307.584 
L 109.963636 307.584 
L 106.821818 307.584 
z
" style="fill:#e24a33;"/>
   </g>
   <g id="patch_11">
    <path clip-path="url(#pbc6cabc6f3)" d="M 109.963636 307.584 
L 113.105455 307.584 
L 113.105455 307.584 
L 109.963636 307.584 
z
" style="fill:#e24a33;"/>
   </g>
   <g id="patch_12">
    <path clip-path="url(#pbc6cabc6f3)" d="M 113.105455 307.584 
L 116.247273 307.584 
L 116.247273 307.584 
L 113.105455 307.584 
z
" style="fill:#e24a33;"/>
   </g>
   <g id="patch_13">
    <path clip-path="url(#pbc6cabc6f3)" d="M 116.247273 307.584 
L 119.389091 307.584 
L 119.389091 307.584 
L 116.247273 307.584 
z
" style="fill:#e24a33;"/>
   </g>
   <g id="patch_14">
    <path clip-path="url(#pbc6cabc6f3)" d="M 119.389091 307.584 
L 122.530909 307.584 
L 122.530909 307.584 
L 119.389091 307.584 
z
" style="fill:#e24a33;"/>
   </g>
   <g id="patch_15">
    <path clip-path="url(#pbc6cabc6f3)" d="M 122.530909 307.584 
L 125.672727 307.584 
L 125.672727 307.584 
L 122.530909 307.584 
z
" style="fill:#e24a33;"/>
   </g>
   <g id="patch_16">
    <path clip-path="url(#pbc6cabc6f3)" d="M 125.672727 307.584 
L 128.814545 307.584 
L 128.814545 307.584 
L 125.672727 307.584 
z
" style="fill:#e24a33;"/>
   </g>
   <g id="patch_17">
    <path clip-path="url(#pbc6cabc6f3)" d="M 128.814545 307.584 
L 131.956364 307.584 
L 131.956364 307.584 
L 128.814545 307.584 
z
" style="fill:#e24a33;"/>
   </g>
   <g id="patch_18">
    <path clip-path="url(#pbc6cabc6f3)" d="M 131.956364 307.584 
L 135.098182 307.584 
L 135.098182 307.584 
L 131.956364 307.584 
z
" style="fill:#e24a33;"/>
   </g>
   <g id="patch_19">
    <path clip-path="url(#pbc6cabc6f3)" d="M 135.098182 307.584 
L 138.24 307.584 
L 138.24 307.444517 
L 135.098182 307.444517 
z
" style="fill:#e24a33;"/>
   </g>
   <g id="patch_20">
    <path clip-path="url(#pbc6cabc6f3)" d="M 138.24 307.584 
L 141.381818 307.584 
L 141.381818 307.584 
L 138.24 307.584 
z
" style="fill:#e24a33;"/>
   </g>
   <g id="patch_21">
    <path clip-path="url(#pbc6cabc6f3)" d="M 141.381818 307.584 
L 144.523636 307.584 
L 144.523636 307.584 
L 141.381818 307.584 
z
" style="fill:#e24a33;"/>
   </g>
   <g id="patch_22">
    <path clip-path="url(#pbc6cabc6f3)" d="M 144.523636 307.584 
L 147.665455 307.584 
L 147.665455 307.584 
L 144.523636 307.584 
z
" style="fill:#e24a33;"/>
   </g>
   <g id="patch_23">
    <path clip-path="url(#pbc6cabc6f3)" d="M 147.665455 307.584 
L 150.807273 307.584 
L 150.807273 307.584 
L 147.665455 307.584 
z
" style="fill:#e24a33;"/>
   </g>
   <g id="patch_24">
    <path clip-path="url(#pbc6cabc6f3)" d="M 150.807273 307.584 
L 153.949091 307.584 
L 153.949091 307.584 
L 150.807273 307.584 
z
" style="fill:#e24a33;"/>
   </g>
   <g id="patch_25">
    <path clip-path="url(#pbc6cabc6f3)" d="M 153.949091 307.584 
L 157.090909 307.584 
L 157.090909 307.584 
L 153.949091 307.584 
z
" style="fill:#e24a33;"/>
   </g>
   <g id="patch_26">
    <path clip-path="url(#pbc6cabc6f3)" d="M 157.090909 307.584 
L 160.232727 307.584 
L 160.232727 307.584 
L 157.090909 307.584 
z
" style="fill:#e24a33;"/>
   </g>
   <g id="patch_27">
    <path clip-path="url(#pbc6cabc6f3)" d="M 160.232727 307.584 
L 163.374545 307.584 
L 163.374545 307.584 
L 160.232727 307.584 
z
" style="fill:#e24a33;"/>
   </g>
   <g id="patch_28">
    <path clip-path="url(#pbc6cabc6f3)" d="M 163.374545 307.584 
L 166.516364 307.584 
L 166.516364 307.584 
L 163.374545 307.584 
z
" style="fill:#e24a33;"/>
   </g>
   <g id="patch_29">
    <path clip-path="url(#pbc6cabc6f3)" d="M 166.516364 307.584 
L 169.658182 307.584 
L 169.658182 307.584 
L 166.516364 307.584 
z
" style="fill:#e24a33;"/>
   </g>
   <g id="patch_30">
    <path clip-path="url(#pbc6cabc6f3)" d="M 169.658182 307.584 
L 172.8 307.584 
L 172.8 306.607621 
L 169.658182 306.607621 
z
" style="fill:#e24a33;"/>
   </g>
   <g id="patch_31">
    <path clip-path="url(#pbc6cabc6f3)" d="M 172.8 307.584 
L 175.941818 307.584 
L 175.941818 307.584 
L 172.8 307.584 
z
" style="fill:#e24a33;"/>
   </g>
   <g id="patch_32">
    <path clip-path="url(#pbc6cabc6f3)" d="M 175.941818 307.584 
L 179.083636 307.584 
L 179.083636 307.584 
L 175.941818 307.584 
z
" style="fill:#e24a33;"/>
   </g>
   <g id="patch_33">
    <path clip-path="url(#pbc6cabc6f3)" d="M 179.083636 307.584 
L 182.225455 307.584 
L 182.225455 307.584 
L 179.083636 307.584 
z
" style="fill:#e24a33;"/>
   </g>
   <g id="patch_34">
    <path clip-path="url(#pbc6cabc6f3)" d="M 182.225455 307.584 
L 185.367273 307.584 
L 185.367273 307.026069 
L 182.225455 307.026069 
z
" style="fill:#e24a33;"/>
   </g>
   <g id="patch_35">
    <path clip-path="url(#pbc6cabc6f3)" d="M 185.367273 307.584 
L 188.509091 307.584 
L 188.509091 307.584 
L 185.367273 307.584 
z
" style="fill:#e24a33;"/>
   </g>
   <g id="patch_36">
    <path clip-path="url(#pbc6cabc6f3)" d="M 188.509091 307.584 
L 191.650909 307.584 
L 191.650909 307.444517 
L 188.509091 307.444517 
z
" style="fill:#e24a33;"/>
   </g>
   <g id="patch_37">
    <path clip-path="url(#pbc6cabc6f3)" d="M 191.650909 307.584 
L 194.792727 307.584 
L 194.792727 307.584 
L 191.650909 307.584 
z
" style="fill:#e24a33;"/>
   </g>
   <g id="patch_38">
    <path clip-path="url(#pbc6cabc6f3)" d="M 194.792727 307.584 
L 197.934545 307.584 
L 197.934545 307.584 
L 194.792727 307.584 
z
" style="fill:#e24a33;"/>
   </g>
   <g id="patch_39">
    <path clip-path="url(#pbc6cabc6f3)" d="M 197.934545 307.584 
L 201.076364 307.584 
L 201.076364 307.584 
L 197.934545 307.584 
z
" style="fill:#e24a33;"/>
   </g>
   <g id="patch_40">
    <path clip-path="url(#pbc6cabc6f3)" d="M 201.076364 307.584 
L 204.218182 307.584 
L 204.218182 307.305035 
L 201.076364 307.305035 
z
" style="fill:#e24a33;"/>
   </g>
   <g id="patch_41">
    <path clip-path="url(#pbc6cabc6f3)" d="M 204.218182 307.584 
L 207.36 307.584 
L 207.36 307.584 
L 204.218182 307.584 
z
" style="fill:#e24a33;"/>
   </g>
   <g id="patch_42">
    <path clip-path="url(#pbc6cabc6f3)" d="M 207.36 307.584 
L 210.501818 307.584 
L 210.501818 307.165552 
L 207.36 307.165552 
z
" style="fill:#e24a33;"/>
   </g>
   <g id="patch_43">
    <path clip-path="url(#pbc6cabc6f3)" d="M 210.501818 307.584 
L 213.643636 307.584 
L 213.643636 307.165552 
L 210.501818 307.165552 
z
" style="fill:#e24a33;"/>
   </g>
   <g id="patch_44">
    <path clip-path="url(#pbc6cabc6f3)" d="M 213.643636 307.584 
L 216.785455 307.584 
L 216.785455 307.584 
L 213.643636 307.584 
z
" style="fill:#e24a33;"/>
   </g>
   <g id="patch_45">
    <path clip-path="url(#pbc6cabc6f3)" d="M 216.785455 307.584 
L 219.927273 307.584 
L 219.927273 307.026069 
L 216.785455 307.026069 
z
" style="fill:#e24a33;"/>
   </g>
   <g id="patch_46">
    <path clip-path="url(#pbc6cabc6f3)" d="M 219.927273 307.584 
L 223.069091 307.584 
L 223.069091 306.886587 
L 219.927273 306.886587 
z
" style="fill:#e24a33;"/>
   </g>
   <g id="patch_47">
    <path clip-path="url(#pbc6cabc6f3)" d="M 223.069091 307.584 
L 226.210909 307.584 
L 226.210909 306.886587 
L 223.069091 306.886587 
z
" style="fill:#e24a33;"/>
   </g>
   <g id="patch_48">
    <path clip-path="url(#pbc6cabc6f3)" d="M 226.210909 307.584 
L 229.352727 307.584 
L 229.352727 306.886587 
L 226.210909 306.886587 
z
" style="fill:#e24a33;"/>
   </g>
   <g id="patch_49">
    <path clip-path="url(#pbc6cabc6f3)" d="M 229.352727 307.584 
L 232.494545 307.584 
L 232.494545 306.607621 
L 229.352727 306.607621 
z
" style="fill:#e24a33;"/>
   </g>
   <g id="patch_50">
    <path clip-path="url(#pbc6cabc6f3)" d="M 232.494545 307.584 
L 235.636364 307.584 
L 235.636364 305.352277 
L 232.494545 305.352277 
z
" style="fill:#e24a33;"/>
   </g>
   <g id="patch_51">
    <path clip-path="url(#pbc6cabc6f3)" d="M 235.636364 307.584 
L 238.778182 307.584 
L 238.778182 305.212795 
L 235.636364 305.212795 
z
" style="fill:#e24a33;"/>
   </g>
   <g id="patch_52">
    <path clip-path="url(#pbc6cabc6f3)" d="M 238.778182 307.584 
L 241.92 307.584 
L 241.92 304.096933 
L 238.778182 304.096933 
z
" style="fill:#e24a33;"/>
   </g>
   <g id="patch_53">
    <path clip-path="url(#pbc6cabc6f3)" d="M 241.92 307.584 
L 245.061818 307.584 
L 245.061818 300.609867 
L 241.92 300.609867 
z
" style="fill:#e24a33;"/>
   </g>
   <g id="patch_54">
    <path clip-path="url(#pbc6cabc6f3)" d="M 245.061818 307.584 
L 248.203636 307.584 
L 248.203636 295.170043 
L 245.061818 295.170043 
z
" style="fill:#e24a33;"/>
   </g>
   <g id="patch_55">
    <path clip-path="url(#pbc6cabc6f3)" d="M 248.203636 307.584 
L 251.345455 307.584 
L 251.345455 294.054182 
L 248.203636 294.054182 
z
" style="fill:#e24a33;"/>
   </g>
   <g id="patch_56">
    <path clip-path="url(#pbc6cabc6f3)" d="M 251.345455 307.584 
L 254.487273 307.584 
L 254.487273 292.519872 
L 251.345455 292.519872 
z
" style="fill:#e24a33;"/>
   </g>
   <g id="patch_57">
    <path clip-path="url(#pbc6cabc6f3)" d="M 254.487273 307.584 
L 257.629091 307.584 
L 257.629091 285.545739 
L 254.487273 285.545739 
z
" style="fill:#e24a33;"/>
   </g>
   <g id="patch_58">
    <path clip-path="url(#pbc6cabc6f3)" d="M 257.629091 307.584 
L 260.770909 307.584 
L 260.770909 280.663846 
L 257.629091 280.663846 
z
" style="fill:#e24a33;"/>
   </g>
   <g id="patch_59">
    <path clip-path="url(#pbc6cabc6f3)" d="M 260.770909 307.584 
L 263.912727 307.584 
L 263.912727 263.646961 
L 260.770909 263.646961 
z
" style="fill:#e24a33;"/>
   </g>
   <g id="patch_60">
    <path clip-path="url(#pbc6cabc6f3)" d="M 263.912727 307.584 
L 267.054545 307.584 
L 267.054545 247.606455 
L 263.912727 247.606455 
z
" style="fill:#e24a33;"/>
   </g>
   <g id="patch_61">
    <path clip-path="url(#pbc6cabc6f3)" d="M 267.054545 307.584 
L 270.196364 307.584 
L 270.196364 222.639058 
L 267.054545 222.639058 
z
" style="fill:#e24a33;"/>
   </g>
   <g id="patch_62">
    <path clip-path="url(#pbc6cabc6f3)" d="M 270.196364 307.584 
L 273.338182 307.584 
L 273.338182 179.957363 
L 270.196364 179.957363 
z
" style="fill:#e24a33;"/>
   </g>
   <g id="patch_63">
    <path clip-path="url(#pbc6cabc6f3)" d="M 273.338182 307.584 
L 276.48 307.584 
L 276.48 54.144 
L 273.338182 54.144 
z
" style="fill:#e24a33;"/>
   </g>
   <g id="patch_64">
    <path clip-path="url(#pbc6cabc6f3)" d="M 276.48 307.584 
L 279.621818 307.584 
L 279.621818 183.025981 
L 276.48 183.025981 
z
" style="fill:#e24a33;"/>
   </g>
   <g id="patch_65">
    <path clip-path="url(#pbc6cabc6f3)" d="M 279.621818 307.584 
L 282.763636 307.584 
L 282.763636 198.787522 
L 279.621818 198.787522 
z
" style="fill:#e24a33;"/>
   </g>
   <g id="patch_66">
    <path clip-path="url(#pbc6cabc6f3)" d="M 282.763636 307.584 
L 285.905455 307.584 
L 285.905455 221.523196 
L 282.763636 221.523196 
z
" style="fill:#e24a33;"/>
   </g>
   <g id="patch_67">
    <path clip-path="url(#pbc6cabc6f3)" d="M 285.905455 307.584 
L 289.047273 307.584 
L 289.047273 250.117143 
L 285.905455 250.117143 
z
" style="fill:#e24a33;"/>
   </g>
   <g id="patch_68">
    <path clip-path="url(#pbc6cabc6f3)" d="M 289.047273 307.584 
L 292.189091 307.584 
L 292.189091 266.018166 
L 289.047273 266.018166 
z
" style="fill:#e24a33;"/>
   </g>
   <g id="patch_69">
    <path clip-path="url(#pbc6cabc6f3)" d="M 292.189091 307.584 
L 295.330909 307.584 
L 295.330909 281.779707 
L 292.189091 281.779707 
z
" style="fill:#e24a33;"/>
   </g>
   <g id="patch_70">
    <path clip-path="url(#pbc6cabc6f3)" d="M 295.330909 307.584 
L 298.472727 307.584 
L 298.472727 288.056427 
L 295.330909 288.056427 
z
" style="fill:#e24a33;"/>
   </g>
   <g id="patch_71">
    <path clip-path="url(#pbc6cabc6f3)" d="M 298.472727 307.584 
L 301.614545 307.584 
L 301.614545 292.519872 
L 298.472727 292.519872 
z
" style="fill:#e24a33;"/>
   </g>
   <g id="patch_72">
    <path clip-path="url(#pbc6cabc6f3)" d="M 301.614545 307.584 
L 304.756364 307.584 
L 304.756364 293.356768 
L 301.614545 293.356768 
z
" style="fill:#e24a33;"/>
   </g>
   <g id="patch_73">
    <path clip-path="url(#pbc6cabc6f3)" d="M 304.756364 307.584 
L 307.898182 307.584 
L 307.898182 296.56487 
L 304.756364 296.56487 
z
" style="fill:#e24a33;"/>
   </g>
   <g id="patch_74">
    <path clip-path="url(#pbc6cabc6f3)" d="M 307.898182 307.584 
L 311.04 307.584 
L 311.04 299.075558 
L 307.898182 299.075558 
z
" style="fill:#e24a33;"/>
   </g>
   <g id="patch_75">
    <path clip-path="url(#pbc6cabc6f3)" d="M 311.04 307.584 
L 314.181818 307.584 
L 314.181818 302.004693 
L 311.04 302.004693 
z
" style="fill:#e24a33;"/>
   </g>
   <g id="patch_76">
    <path clip-path="url(#pbc6cabc6f3)" d="M 314.181818 307.584 
L 317.323636 307.584 
L 317.323636 303.120555 
L 314.181818 303.120555 
z
" style="fill:#e24a33;"/>
   </g>
   <g id="patch_77">
    <path clip-path="url(#pbc6cabc6f3)" d="M 317.323636 307.584 
L 320.465455 307.584 
L 320.465455 304.794347 
L 317.323636 304.794347 
z
" style="fill:#e24a33;"/>
   </g>
   <g id="patch_78">
    <path clip-path="url(#pbc6cabc6f3)" d="M 320.465455 307.584 
L 323.607273 307.584 
L 323.607273 305.910208 
L 320.465455 305.910208 
z
" style="fill:#e24a33;"/>
   </g>
   <g id="patch_79">
    <path clip-path="url(#pbc6cabc6f3)" d="M 323.607273 307.584 
L 326.749091 307.584 
L 326.749091 306.328656 
L 323.607273 306.328656 
z
" style="fill:#e24a33;"/>
   </g>
   <g id="patch_80">
    <path clip-path="url(#pbc6cabc6f3)" d="M 326.749091 307.584 
L 329.890909 307.584 
L 329.890909 306.886587 
L 326.749091 306.886587 
z
" style="fill:#e24a33;"/>
   </g>
   <g id="patch_81">
    <path clip-path="url(#pbc6cabc6f3)" d="M 329.890909 307.584 
L 333.032727 307.584 
L 333.032727 306.607621 
L 329.890909 306.607621 
z
" style="fill:#e24a33;"/>
   </g>
   <g id="patch_82">
    <path clip-path="url(#pbc6cabc6f3)" d="M 333.032727 307.584 
L 336.174545 307.584 
L 336.174545 307.584 
L 333.032727 307.584 
z
" style="fill:#e24a33;"/>
   </g>
   <g id="patch_83">
    <path clip-path="url(#pbc6cabc6f3)" d="M 336.174545 307.584 
L 339.316364 307.584 
L 339.316364 307.165552 
L 336.174545 307.165552 
z
" style="fill:#e24a33;"/>
   </g>
   <g id="patch_84">
    <path clip-path="url(#pbc6cabc6f3)" d="M 339.316364 307.584 
L 342.458182 307.584 
L 342.458182 307.444517 
L 339.316364 307.444517 
z
" style="fill:#e24a33;"/>
   </g>
   <g id="patch_85">
    <path clip-path="url(#pbc6cabc6f3)" d="M 342.458182 307.584 
L 345.6 307.584 
L 345.6 307.026069 
L 342.458182 307.026069 
z
" style="fill:#e24a33;"/>
   </g>
   <g id="patch_86">
    <path clip-path="url(#pbc6cabc6f3)" d="M 345.6 307.584 
L 348.741818 307.584 
L 348.741818 307.444517 
L 345.6 307.444517 
z
" style="fill:#e24a33;"/>
   </g>
   <g id="patch_87">
    <path clip-path="url(#pbc6cabc6f3)" d="M 348.741818 307.584 
L 351.883636 307.584 
L 351.883636 307.026069 
L 348.741818 307.026069 
z
" style="fill:#e24a33;"/>
   </g>
   <g id="patch_88">
    <path clip-path="url(#pbc6cabc6f3)" d="M 351.883636 307.584 
L 355.025455 307.584 
L 355.025455 307.444517 
L 351.883636 307.444517 
z
" style="fill:#e24a33;"/>
   </g>
   <g id="patch_89">
    <path clip-path="url(#pbc6cabc6f3)" d="M 355.025455 307.584 
L 358.167273 307.584 
L 358.167273 306.886587 
L 355.025455 306.886587 
z
" style="fill:#e24a33;"/>
   </g>
   <g id="patch_90">
    <path clip-path="url(#pbc6cabc6f3)" d="M 358.167273 307.584 
L 361.309091 307.584 
L 361.309091 307.584 
L 358.167273 307.584 
z
" style="fill:#e24a33;"/>
   </g>
   <g id="patch_91">
    <path clip-path="url(#pbc6cabc6f3)" d="M 361.309091 307.584 
L 364.450909 307.584 
L 364.450909 307.444517 
L 361.309091 307.444517 
z
" style="fill:#e24a33;"/>
   </g>
   <g id="patch_92">
    <path clip-path="url(#pbc6cabc6f3)" d="M 364.450909 307.584 
L 367.592727 307.584 
L 367.592727 307.584 
L 364.450909 307.584 
z
" style="fill:#e24a33;"/>
   </g>
   <g id="patch_93">
    <path clip-path="url(#pbc6cabc6f3)" d="M 367.592727 307.584 
L 370.734545 307.584 
L 370.734545 307.444517 
L 367.592727 307.444517 
z
" style="fill:#e24a33;"/>
   </g>
   <g id="patch_94">
    <path clip-path="url(#pbc6cabc6f3)" d="M 370.734545 307.584 
L 373.876364 307.584 
L 373.876364 307.584 
L 370.734545 307.584 
z
" style="fill:#e24a33;"/>
   </g>
   <g id="patch_95">
    <path clip-path="url(#pbc6cabc6f3)" d="M 373.876364 307.584 
L 377.018182 307.584 
L 377.018182 307.444517 
L 373.876364 307.444517 
z
" style="fill:#e24a33;"/>
   </g>
   <g id="patch_96">
    <path clip-path="url(#pbc6cabc6f3)" d="M 377.018182 307.584 
L 380.16 307.584 
L 380.16 307.584 
L 377.018182 307.584 
z
" style="fill:#e24a33;"/>
   </g>
   <g id="patch_97">
    <path clip-path="url(#pbc6cabc6f3)" d="M 380.16 307.584 
L 383.301818 307.584 
L 383.301818 307.026069 
L 380.16 307.026069 
z
" style="fill:#e24a33;"/>
   </g>
   <g id="patch_98">
    <path clip-path="url(#pbc6cabc6f3)" d="M 383.301818 307.584 
L 386.443636 307.584 
L 386.443636 307.584 
L 383.301818 307.584 
z
" style="fill:#e24a33;"/>
   </g>
   <g id="patch_99">
    <path clip-path="url(#pbc6cabc6f3)" d="M 386.443636 307.584 
L 389.585455 307.584 
L 389.585455 307.584 
L 386.443636 307.584 
z
" style="fill:#e24a33;"/>
   </g>
   <g id="patch_100">
    <path clip-path="url(#pbc6cabc6f3)" d="M 389.585455 307.584 
L 392.727273 307.584 
L 392.727273 307.584 
L 389.585455 307.584 
z
" style="fill:#e24a33;"/>
   </g>
   <g id="patch_101">
    <path clip-path="url(#pbc6cabc6f3)" d="M 392.727273 307.584 
L 395.869091 307.584 
L 395.869091 307.584 
L 392.727273 307.584 
z
" style="fill:#e24a33;"/>
   </g>
   <g id="patch_102">
    <path clip-path="url(#pbc6cabc6f3)" d="M 395.869091 307.584 
L 399.010909 307.584 
L 399.010909 306.328656 
L 395.869091 306.328656 
z
" style="fill:#e24a33;"/>
   </g>
   <g id="patch_103">
    <path d="M 69.12 307.584 
L 69.12 41.472 
" style="fill:none;stroke:#ffffff;stroke-linecap:square;stroke-linejoin:miter;"/>
   </g>
   <g id="patch_104">
    <path d="M 414.72 307.584 
L 414.72 41.472 
" style="fill:none;stroke:#ffffff;stroke-linecap:square;stroke-linejoin:miter;"/>
   </g>
   <g id="patch_105">
    <path d="M 69.12 307.584 
L 414.72 307.584 
" style="fill:none;stroke:#ffffff;stroke-linecap:square;stroke-linejoin:miter;"/>
   </g>
   <g id="patch_106">
    <path d="M 69.12 41.472 
L 414.72 41.472 
" style="fill:none;stroke:#ffffff;stroke-linecap:square;stroke-linejoin:miter;"/>
   </g>
  </g>
 </g>
 <defs>
  <clipPath id="pbc6cabc6f3">
   <rect height="266.112" width="345.6" x="69.12" y="41.472"/>
  </clipPath>
 </defs>
</svg>
